
<global>
amp_veltrack=0
ampeg_release=3.50
</global>

<group>
group_label=RR1_0-42
seq_length=8
seq_position=1
xf_cccurve=gain
xfin_hicc1=42
xfout_hicc1=84
xfout_locc1=42

<region>
hivel=127
key=G4
lovel=1
offset=1859
sample=3Trombones_staccatissimo_PP_G4_RR1.opus
</region>

<region>
hivel=127
key=G3
lovel=1
offset=475
sample=3Trombones_staccatissimo_PP_G3_RR1.opus
</region>

<region>
hivel=127
key=G2
lovel=1
offset=51
sample=3Trombones_staccatissimo_PP_G2_RR1.opus
</region>

<region>
hivel=127
key=G#4
lovel=1
offset=12308
sample=3Trombones_staccatissimo_PP_G#4_RR1.opus
</region>

<region>
hivel=127
key=G#3
lovel=1
offset=680
sample=3Trombones_staccatissimo_PP_G#3_RR1.opus
</region>

<region>
hivel=127
key=G#2
lovel=1
offset=14575
sample=3Trombones_staccatissimo_PP_G#2_RR1.opus
</region>

<region>
hivel=127
key=F4
lovel=1
offset=16190
sample=3Trombones_staccatissimo_PP_F4_RR1.opus
</region>

<region>
hivel=127
key=F3
lovel=1
offset=3112
sample=3Trombones_staccatissimo_PP_F3_RR1.opus
</region>

<region>
hivel=127
key=F2
lovel=1
offset=12463
sample=3Trombones_staccatissimo_PP_F2_RR1.opus
</region>

<region>
hivel=127
key=F#4
lovel=1
offset=15181
sample=3Trombones_staccatissimo_PP_F#4_RR1.opus
</region>

<region>
hivel=127
key=F#3
lovel=1
offset=14193
sample=3Trombones_staccatissimo_PP_F#3_RR1.opus
</region>

<region>
hivel=127
key=F#2
lovel=1
offset=12703
sample=3Trombones_staccatissimo_PP_F#2_RR1.opus
</region>

<region>
hivel=127
key=E4
lovel=1
offset=13967
sample=3Trombones_staccatissimo_PP_E4_RR1.opus
</region>

<region>
hivel=127
key=E3
lovel=1
offset=11156
sample=3Trombones_staccatissimo_PP_E3_RR1.opus
</region>

<region>
hivel=127
key=E2
lovel=1
offset=15530
sample=3Trombones_staccatissimo_PP_E2_RR1.opus
</region>

<region>
hivel=127
key=D4
lovel=1
offset=2116
sample=3Trombones_staccatissimo_PP_D4_RR1.opus
</region>

<region>
hivel=127
key=D3
lovel=1
offset=7375
sample=3Trombones_staccatissimo_PP_D3_RR1.opus
</region>

<region>
hivel=127
key=D#4
lovel=1
offset=13652
sample=3Trombones_staccatissimo_PP_D#4_RR1.opus
</region>

<region>
hivel=127
key=D#3
lovel=1
offset=11630
sample=3Trombones_staccatissimo_PP_D#3_RR1.opus
</region>

<region>
hivel=127
key=C5
lovel=1
offset=70
sample=3Trombones_staccatissimo_PP_C5_RR1.opus
</region>

<region>
hivel=127
key=C4
lovel=1
offset=12190
sample=3Trombones_staccatissimo_PP_C4_RR1.opus
</region>

<region>
hivel=127
key=C3
lovel=1
offset=1027
sample=3Trombones_staccatissimo_PP_C3_RR1.opus
</region>

<region>
hivel=127
key=C#4
lovel=1
offset=2320
sample=3Trombones_staccatissimo_PP_C#4_RR1.opus
</region>

<region>
hivel=127
key=C#3
lovel=1
offset=11022
sample=3Trombones_staccatissimo_PP_C#3_RR1.opus
</region>

<region>
hivel=127
key=B4
lovel=1
offset=15495
sample=3Trombones_staccatissimo_PP_B4_RR1.opus
</region>

<region>
hivel=127
key=B3
lovel=1
sample=3Trombones_staccatissimo_PP_B3_RR1.opus
</region>

<region>
hivel=127
key=B2
lovel=1
offset=680
sample=3Trombones_staccatissimo_PP_B2_RR1.opus
</region>

<region>
hivel=127
key=A4
lovel=1
offset=701
sample=3Trombones_staccatissimo_PP_A4_RR1.opus
</region>

<region>
hivel=127
key=A3
lovel=1
offset=13000
sample=3Trombones_staccatissimo_PP_A3_RR1.opus
</region>

<region>
hivel=127
key=A2
lovel=1
offset=1647
sample=3Trombones_staccatissimo_PP_A2_RR1.opus
</region>

<region>
hivel=127
key=A#4
lovel=1
offset=3531
sample=3Trombones_staccatissimo_PP_A#4_RR1.opus
</region>

<region>
hivel=127
key=A#3
lovel=1
offset=13978
sample=3Trombones_staccatissimo_PP_A#3_RR1.opus
</region>

<region>
hivel=127
key=A#2
lovel=1
offset=710
sample=3Trombones_staccatissimo_PP_A#2_RR1.opus
</region>
</group>

<group>
group_label=RR1_43-84
seq_length=8
seq_position=1
xf_cccurve=gain
xfin_hicc1=84
xfin_locc1=43
xfout_hicc1=125
xfout_locc1=84

<region>
hivel=127
key=G4
lovel=1
offset=11727
sample=3Trombones_staccatissimo_MF_G4_RR1.opus
</region>

<region>
hivel=127
key=G3
lovel=1
offset=482
sample=3Trombones_staccatissimo_MF_G3_RR1.opus
</region>

<region>
hivel=127
key=G2
lovel=1
offset=958
sample=3Trombones_staccatissimo_MF_G2_RR1.opus
</region>

<region>
hivel=127
key=G#4
lovel=1
offset=13390
sample=3Trombones_staccatissimo_MF_G#4_RR1.opus
</region>

<region>
hivel=127
key=G#3
lovel=1
offset=13925
sample=3Trombones_staccatissimo_MF_G#3_RR1.opus
</region>

<region>
hivel=127
key=G#2
lovel=1
offset=11634
sample=3Trombones_staccatissimo_MF_G#2_RR1.opus
</region>

<region>
hivel=127
key=F4
lovel=1
offset=13786
sample=3Trombones_staccatissimo_MF_F4_RR1.opus
</region>

<region>
hivel=127
key=F3
lovel=1
offset=1776
sample=3Trombones_staccatissimo_MF_F3_RR1.opus
</region>

<region>
hivel=127
key=F2
lovel=1
offset=11635
sample=3Trombones_staccatissimo_MF_F2_RR1.opus
</region>

<region>
hivel=127
key=F#4
lovel=1
offset=13049
sample=3Trombones_staccatissimo_MF_F#4_RR1.opus
</region>

<region>
hivel=127
key=F#3
lovel=1
offset=1771
sample=3Trombones_staccatissimo_MF_F#3_RR1.opus
</region>

<region>
hivel=127
key=F#2
lovel=1
offset=1013
sample=3Trombones_staccatissimo_MF_F#2_RR1.opus
</region>

<region>
hivel=127
key=E4
lovel=1
offset=13162
sample=3Trombones_staccatissimo_MF_E4_RR1.opus
</region>

<region>
hivel=127
key=E3
lovel=1
offset=608
sample=3Trombones_staccatissimo_MF_E3_RR1.opus
</region>

<region>
hivel=127
key=E2
lovel=1
offset=961
sample=3Trombones_staccatissimo_MF_E2_RR1.opus
</region>

<region>
hivel=127
key=D4
lovel=1
offset=12471
sample=3Trombones_staccatissimo_MF_D4_RR1.opus
</region>

<region>
hivel=127
key=D3
lovel=1
offset=1226
sample=3Trombones_staccatissimo_MF_D3_RR1.opus
</region>

<region>
hivel=127
key=D#4
lovel=1
offset=2719
sample=3Trombones_staccatissimo_MF_D#4_RR1.opus
</region>

<region>
hivel=127
key=D#3
lovel=1
offset=427
sample=3Trombones_staccatissimo_MF_D#3_RR1.opus
</region>

<region>
hivel=127
key=C5
lovel=1
offset=11831
sample=3Trombones_staccatissimo_MF_C5_RR1.opus
</region>

<region>
hivel=127
key=C4
lovel=1
offset=13108
sample=3Trombones_staccatissimo_MF_C4_RR1.opus
</region>

<region>
hivel=127
key=C3
lovel=1
offset=1382
sample=3Trombones_staccatissimo_MF_C3_RR1.opus
</region>

<region>
hivel=127
key=C#4
lovel=1
offset=12505
sample=3Trombones_staccatissimo_MF_C#4_RR1.opus
</region>

<region>
hivel=127
key=C#3
lovel=1
offset=1184
sample=3Trombones_staccatissimo_MF_C#3_RR1.opus
</region>

<region>
hivel=127
key=B4
lovel=1
offset=13471
sample=3Trombones_staccatissimo_MF_B4_RR1.opus
</region>

<region>
hivel=127
key=B3
lovel=1
offset=1053
sample=3Trombones_staccatissimo_MF_B3_RR1.opus
</region>

<region>
hivel=127
key=B2
lovel=1
offset=1847
sample=3Trombones_staccatissimo_MF_B2_RR1.opus
</region>

<region>
hivel=127
key=A4
lovel=1
offset=13148
sample=3Trombones_staccatissimo_MF_A4_RR1.opus
</region>

<region>
hivel=127
key=A3
lovel=1
offset=12647
sample=3Trombones_staccatissimo_MF_A3_RR1.opus
</region>

<region>
hivel=127
key=A2
lovel=1
offset=12377
sample=3Trombones_staccatissimo_MF_A2_RR1.opus
</region>

<region>
hivel=127
key=A#4
lovel=1
offset=1118
sample=3Trombones_staccatissimo_MF_A#4_RR1.opus
</region>

<region>
hivel=127
key=A#3
lovel=1
offset=1209
sample=3Trombones_staccatissimo_MF_A#3_RR1.opus
</region>

<region>
hivel=127
key=A#2
lovel=1
offset=1396
sample=3Trombones_staccatissimo_MF_A#2_RR1.opus
</region>
</group>

<group>
group_label=RR1_85-127
seq_length=8
seq_position=1
xf_cccurve=gain
xfin_hicc1=127
xfin_locc1=85
xfout_hicc1=127
xfout_locc1=127

<region>
hivel=127
key=G4
lovel=1
offset=13383
sample=3Trombones_staccatissimo_FF_G4_RR1.opus
</region>

<region>
hivel=127
key=G3
lovel=1
offset=11947
sample=3Trombones_staccatissimo_FF_G3_RR1.opus
</region>

<region>
hivel=127
key=G2
lovel=1
offset=16970
sample=3Trombones_staccatissimo_FF_G2_RR1.opus
</region>

<region>
hivel=127
key=G#4
lovel=1
offset=12947
sample=3Trombones_staccatissimo_FF_G#4_RR1.opus
</region>

<region>
hivel=127
key=G#3
lovel=1
offset=13757
sample=3Trombones_staccatissimo_FF_G#3_RR1.opus
</region>

<region>
hivel=127
key=G#2
lovel=1
offset=13295
sample=3Trombones_staccatissimo_FF_G#2_RR1.opus
</region>

<region>
hivel=127
key=F4
lovel=1
offset=13028
sample=3Trombones_staccatissimo_FF_F4_RR1.opus
</region>

<region>
hivel=127
key=F3
lovel=1
offset=10142
sample=3Trombones_staccatissimo_FF_F3_RR1.opus
</region>

<region>
hivel=127
key=F2
lovel=1
offset=10178
sample=3Trombones_staccatissimo_FF_F2_RR1.opus
</region>

<region>
hivel=127
key=F#4
lovel=1
offset=13351
sample=3Trombones_staccatissimo_FF_F#4_RR1.opus
</region>

<region>
hivel=127
key=F#3
lovel=1
offset=821
sample=3Trombones_staccatissimo_FF_F#3_RR1.opus
</region>

<region>
hivel=127
key=F#2
lovel=1
offset=13556
sample=3Trombones_staccatissimo_FF_F#2_RR1.opus
</region>

<region>
hivel=127
key=E4
lovel=1
offset=14447
sample=3Trombones_staccatissimo_FF_E4_RR1.opus
</region>

<region>
hivel=127
key=E3
lovel=1
offset=11552
sample=3Trombones_staccatissimo_FF_E3_RR1.opus
</region>

<region>
hivel=127
key=E2
lovel=1
offset=11837
sample=3Trombones_staccatissimo_FF_E2_RR1.opus
</region>

<region>
hivel=127
key=D4
lovel=1
offset=12735
sample=3Trombones_staccatissimo_FF_D4_RR1.opus
</region>

<region>
hivel=127
key=D3
lovel=1
offset=13516
sample=3Trombones_staccatissimo_FF_D3_RR1.opus
</region>

<region>
hivel=127
key=D#4
lovel=1
offset=900
sample=3Trombones_staccatissimo_FF_D#4_RR1.opus
</region>

<region>
hivel=127
key=D#3
lovel=1
offset=12068
sample=3Trombones_staccatissimo_FF_D#3_RR1.opus
</region>

<region>
hivel=127
key=C5
lovel=1
offset=13866
sample=3Trombones_staccatissimo_FF_C5_RR1.opus
</region>

<region>
hivel=127
key=C4
lovel=1
offset=11901
sample=3Trombones_staccatissimo_FF_C4_RR1.opus
</region>

<region>
hivel=127
key=C3
lovel=1
offset=761
sample=3Trombones_staccatissimo_FF_C3_RR1.opus
</region>

<region>
hivel=127
key=C#4
lovel=1
offset=548
sample=3Trombones_staccatissimo_FF_C#4_RR1.opus
</region>

<region>
hivel=127
key=C#3
lovel=1
offset=10882
sample=3Trombones_staccatissimo_FF_C#3_RR1.opus
</region>

<region>
hivel=127
key=B4
lovel=1
offset=13346
sample=3Trombones_staccatissimo_FF_B4_RR1.opus
</region>

<region>
hivel=127
key=B3
lovel=1
offset=500
sample=3Trombones_staccatissimo_FF_B3_RR1.opus
</region>

<region>
hivel=127
key=B2
lovel=1
offset=13497
sample=3Trombones_staccatissimo_FF_B2_RR1.opus
</region>

<region>
hivel=127
key=A4
lovel=1
offset=14446
sample=3Trombones_staccatissimo_FF_A4_RR1.opus
</region>

<region>
hivel=127
key=A3
lovel=1
offset=12465
sample=3Trombones_staccatissimo_FF_A3_RR1.opus
</region>

<region>
hivel=127
key=A2
lovel=1
offset=13474
sample=3Trombones_staccatissimo_FF_A2_RR1.opus
</region>

<region>
hivel=127
key=A#4
lovel=1
offset=12118
sample=3Trombones_staccatissimo_FF_A#4_RR1.opus
</region>

<region>
hivel=127
key=A#3
lovel=1
offset=12982
sample=3Trombones_staccatissimo_FF_A#3_RR1.opus
</region>

<region>
hivel=127
key=A#2
lovel=1
offset=12453
sample=3Trombones_staccatissimo_FF_A#2_RR1.opus
</region>
</group>

<group>
group_label=RR2_85-127
seq_length=8
seq_position=2
xf_cccurve=gain
xfin_hicc1=127
xfin_locc1=85
xfout_hicc1=127
xfout_locc1=127

<region>
hivel=127
key=G4
lovel=1
offset=348
sample=3Trombones_staccatissimo_FF_G4_RR2.opus
</region>

<region>
hivel=127
key=G3
lovel=1
offset=765
sample=3Trombones_staccatissimo_FF_G3_RR2.opus
</region>

<region>
hivel=127
key=G2
lovel=1
offset=1989
sample=3Trombones_staccatissimo_FF_G2_RR2.opus
</region>

<region>
hivel=127
key=G#4
lovel=1
offset=1030
sample=3Trombones_staccatissimo_FF_G#4_RR2.opus
</region>

<region>
hivel=127
key=G#3
lovel=1
offset=225
sample=3Trombones_staccatissimo_FF_G#3_RR2.opus
</region>

<region>
hivel=127
key=G#2
lovel=1
offset=472
sample=3Trombones_staccatissimo_FF_G#2_RR2.opus
</region>

<region>
hivel=127
key=F4
lovel=1
offset=171
sample=3Trombones_staccatissimo_FF_F4_RR2.opus
</region>

<region>
hivel=127
key=F3
lovel=1
offset=340
sample=3Trombones_staccatissimo_FF_F3_RR2.opus
</region>

<region>
hivel=127
key=F2
lovel=1
offset=1271
sample=3Trombones_staccatissimo_FF_F2_RR2.opus
</region>

<region>
hivel=127
key=F#4
lovel=1
offset=1482
sample=3Trombones_staccatissimo_FF_F#4_RR2.opus
</region>

<region>
hivel=127
key=F#3
lovel=1
offset=342
sample=3Trombones_staccatissimo_FF_F#3_RR2.opus
</region>

<region>
hivel=127
key=F#2
lovel=1
offset=600
sample=3Trombones_staccatissimo_FF_F#2_RR2.opus
</region>

<region>
hivel=127
key=E4
lovel=1
offset=204
sample=3Trombones_staccatissimo_FF_E4_RR2.opus
</region>

<region>
hivel=127
key=E3
lovel=1
offset=90
sample=3Trombones_staccatissimo_FF_E3_RR2.opus
</region>

<region>
hivel=127
key=E2
lovel=1
offset=1369
sample=3Trombones_staccatissimo_FF_E2_RR2.opus
</region>

<region>
hivel=127
key=D4
lovel=1
offset=123
sample=3Trombones_staccatissimo_FF_D4_RR2.opus
</region>

<region>
hivel=127
key=D3
lovel=1
offset=231
sample=3Trombones_staccatissimo_FF_D3_RR2.opus
</region>

<region>
hivel=127
key=D#4
lovel=1
offset=226
sample=3Trombones_staccatissimo_FF_D#4_RR2.opus
</region>

<region>
hivel=127
key=D#3
lovel=1
offset=94
sample=3Trombones_staccatissimo_FF_D#3_RR2.opus
</region>

<region>
hivel=127
key=C5
lovel=1
offset=262
sample=3Trombones_staccatissimo_FF_C5_RR2.opus
</region>

<region>
hivel=127
key=C4
lovel=1
offset=646
sample=3Trombones_staccatissimo_FF_C4_RR2.opus
</region>

<region>
hivel=127
key=C3
lovel=1
offset=892
sample=3Trombones_staccatissimo_FF_C3_RR2.opus
</region>

<region>
hivel=127
key=C#4
lovel=1
offset=234
sample=3Trombones_staccatissimo_FF_C#4_RR2.opus
</region>

<region>
hivel=127
key=C#3
lovel=1
offset=979
sample=3Trombones_staccatissimo_FF_C#3_RR2.opus
</region>

<region>
hivel=127
key=B4
lovel=1
offset=323
sample=3Trombones_staccatissimo_FF_B4_RR2.opus
</region>

<region>
hivel=127
key=B3
lovel=1
offset=408
sample=3Trombones_staccatissimo_FF_B3_RR2.opus
</region>

<region>
hivel=127
key=B2
lovel=1
offset=1084
sample=3Trombones_staccatissimo_FF_B2_RR2.opus
</region>

<region>
hivel=127
key=A4
lovel=1
offset=319
sample=3Trombones_staccatissimo_FF_A4_RR2.opus
</region>

<region>
hivel=127
key=A3
lovel=1
offset=361
sample=3Trombones_staccatissimo_FF_A3_RR2.opus
</region>

<region>
hivel=127
key=A2
lovel=1
offset=445
sample=3Trombones_staccatissimo_FF_A2_RR2.opus
</region>

<region>
hivel=127
key=A#4
lovel=1
offset=268
sample=3Trombones_staccatissimo_FF_A#4_RR2.opus
</region>

<region>
hivel=127
key=A#3
lovel=1
offset=462
sample=3Trombones_staccatissimo_FF_A#3_RR2.opus
</region>

<region>
hivel=127
key=A#2
lovel=1
offset=1227
sample=3Trombones_staccatissimo_FF_A#2_RR2.opus
</region>
</group>

<group>
group_label=RR2_43-84
seq_length=8
seq_position=2
xf_cccurve=gain
xfin_hicc1=84
xfin_locc1=43
xfout_hicc1=125
xfout_locc1=84

<region>
hivel=127
key=G4
lovel=1
offset=526
sample=3Trombones_staccatissimo_MF_G4_RR2.opus
</region>

<region>
hivel=127
key=G3
lovel=1
offset=766
sample=3Trombones_staccatissimo_MF_G3_RR2.opus
</region>

<region>
hivel=127
key=G2
lovel=1
offset=1050
sample=3Trombones_staccatissimo_MF_G2_RR2.opus
</region>

<region>
hivel=127
key=G#4
lovel=1
offset=362
sample=3Trombones_staccatissimo_MF_G#4_RR2.opus
</region>

<region>
hivel=127
key=G#3
lovel=1
offset=436
sample=3Trombones_staccatissimo_MF_G#3_RR2.opus
</region>

<region>
hivel=127
key=G#2
lovel=1
offset=1242
sample=3Trombones_staccatissimo_MF_G#2_RR2.opus
</region>

<region>
hivel=127
key=F4
lovel=1
offset=353
sample=3Trombones_staccatissimo_MF_F4_RR2.opus
</region>

<region>
hivel=127
key=F3
lovel=1
offset=1276
sample=3Trombones_staccatissimo_MF_F3_RR2.opus
</region>

<region>
hivel=127
key=F2
lovel=1
offset=689
sample=3Trombones_staccatissimo_MF_F2_RR2.opus
</region>

<region>
hivel=127
key=F#4
lovel=1
offset=790
sample=3Trombones_staccatissimo_MF_F#4_RR2.opus
</region>

<region>
hivel=127
key=F#3
lovel=1
offset=815
sample=3Trombones_staccatissimo_MF_F#3_RR2.opus
</region>

<region>
hivel=127
key=F#2
lovel=1
offset=1619
sample=3Trombones_staccatissimo_MF_F#2_RR2.opus
</region>

<region>
hivel=127
key=E4
lovel=1
offset=1149
sample=3Trombones_staccatissimo_MF_E4_RR2.opus
</region>

<region>
hivel=127
key=E3
lovel=1
offset=1322
sample=3Trombones_staccatissimo_MF_E3_RR2.opus
</region>

<region>
hivel=127
key=E2
lovel=1
offset=1409
sample=3Trombones_staccatissimo_MF_E2_RR2.opus
</region>

<region>
hivel=127
key=D4
lovel=1
offset=1360
sample=3Trombones_staccatissimo_MF_D4_RR2.opus
</region>

<region>
hivel=127
key=D3
lovel=1
offset=519
sample=3Trombones_staccatissimo_MF_D3_RR2.opus
</region>

<region>
hivel=127
key=D#4
lovel=1
offset=405
sample=3Trombones_staccatissimo_MF_D#4_RR2.opus
</region>

<region>
hivel=127
key=D#3
lovel=1
offset=183
sample=3Trombones_staccatissimo_MF_D#3_RR2.opus
</region>

<region>
hivel=127
key=C5
lovel=1
offset=515
sample=3Trombones_staccatissimo_MF_C5_RR2.opus
</region>

<region>
hivel=127
key=C4
lovel=1
offset=698
sample=3Trombones_staccatissimo_MF_C4_RR2.opus
</region>

<region>
hivel=127
key=C3
lovel=1
offset=1687
sample=3Trombones_staccatissimo_MF_C3_RR2.opus
</region>

<region>
hivel=127
key=C#4
lovel=1
offset=708
sample=3Trombones_staccatissimo_MF_C#4_RR2.opus
</region>

<region>
hivel=127
key=C#3
lovel=1
offset=1993
sample=3Trombones_staccatissimo_MF_C#3_RR2.opus
</region>

<region>
hivel=127
key=B4
lovel=1
offset=850
sample=3Trombones_staccatissimo_MF_B4_RR2.opus
</region>

<region>
hivel=127
key=B3
lovel=1
offset=679
sample=3Trombones_staccatissimo_MF_B3_RR2.opus
</region>

<region>
hivel=127
key=B2
lovel=1
offset=1270
sample=3Trombones_staccatissimo_MF_B2_RR2.opus
</region>

<region>
hivel=127
key=A4
lovel=1
offset=1313
sample=3Trombones_staccatissimo_MF_A4_RR2.opus
</region>

<region>
hivel=127
key=A3
lovel=1
offset=2632
sample=3Trombones_staccatissimo_MF_A3_RR2.opus
</region>

<region>
hivel=127
key=A2
lovel=1
offset=812
sample=3Trombones_staccatissimo_MF_A2_RR2.opus
</region>

<region>
hivel=127
key=A#4
lovel=1
offset=1493
sample=3Trombones_staccatissimo_MF_A#4_RR2.opus
</region>

<region>
hivel=127
key=A#3
lovel=1
offset=562
sample=3Trombones_staccatissimo_MF_A#3_RR2.opus
</region>

<region>
hivel=127
key=A#2
lovel=1
offset=1160
sample=3Trombones_staccatissimo_MF_A#2_RR2.opus
</region>
</group>

<group>
group_label=RR2_0-42
seq_length=8
seq_position=2
xf_cccurve=gain
xfin_hicc1=42
xfout_hicc1=84
xfout_locc1=42

<region>
hivel=127
key=G4
lovel=1
offset=1114
sample=3Trombones_staccatissimo_PP_G4_RR2.opus
</region>

<region>
hivel=127
key=G3
lovel=1
offset=1090
sample=3Trombones_staccatissimo_PP_G3_RR2.opus
</region>

<region>
hivel=127
key=G2
lovel=1
offset=461
sample=3Trombones_staccatissimo_PP_G2_RR2.opus
</region>

<region>
hivel=127
key=G#4
lovel=1
offset=916
sample=3Trombones_staccatissimo_PP_G#4_RR2.opus
</region>

<region>
hivel=127
key=G#3
lovel=1
offset=1583
sample=3Trombones_staccatissimo_PP_G#3_RR2.opus
</region>

<region>
hivel=127
key=G#2
lovel=1
offset=825
sample=3Trombones_staccatissimo_PP_G#2_RR2.opus
</region>

<region>
hivel=127
key=F4
lovel=1
offset=906
sample=3Trombones_staccatissimo_PP_F4_RR2.opus
</region>

<region>
hivel=127
key=F3
lovel=1
offset=2603
sample=3Trombones_staccatissimo_PP_F3_RR2.opus
</region>

<region>
hivel=127
key=F2
lovel=1
offset=1146
sample=3Trombones_staccatissimo_PP_F2_RR2.opus
</region>

<region>
hivel=127
key=F#4
lovel=1
offset=1043
sample=3Trombones_staccatissimo_PP_F#4_RR2.opus
</region>

<region>
hivel=127
key=F#3
lovel=1
offset=1572
sample=3Trombones_staccatissimo_PP_F#3_RR2.opus
</region>

<region>
hivel=127
key=F#2
lovel=1
offset=977
sample=3Trombones_staccatissimo_PP_F#2_RR2.opus
</region>

<region>
hivel=127
key=E4
lovel=1
offset=781
sample=3Trombones_staccatissimo_PP_E4_RR2.opus
</region>

<region>
hivel=127
key=E3
lovel=1
offset=671
sample=3Trombones_staccatissimo_PP_E3_RR2.opus
</region>

<region>
hivel=127
key=E2
lovel=1
offset=1321
sample=3Trombones_staccatissimo_PP_E2_RR2.opus
</region>

<region>
hivel=127
key=D4
lovel=1
offset=496
sample=3Trombones_staccatissimo_PP_D4_RR2.opus
</region>

<region>
hivel=127
key=D3
lovel=1
offset=824
sample=3Trombones_staccatissimo_PP_D3_RR2.opus
</region>

<region>
hivel=127
key=D#4
lovel=1
offset=1769
sample=3Trombones_staccatissimo_PP_D#4_RR2.opus
</region>

<region>
hivel=127
key=D#3
lovel=1
offset=375
sample=3Trombones_staccatissimo_PP_D#3_RR2.opus
</region>

<region>
hivel=127
key=C5
lovel=1
offset=1529
sample=3Trombones_staccatissimo_PP_C5_RR2.opus
</region>

<region>
hivel=127
key=C4
lovel=1
offset=476
sample=3Trombones_staccatissimo_PP_C4_RR2.opus
</region>

<region>
hivel=127
key=C3
lovel=1
offset=1005
sample=3Trombones_staccatissimo_PP_C3_RR2.opus
</region>

<region>
hivel=127
key=C#4
lovel=1
offset=2557
sample=3Trombones_staccatissimo_PP_C#4_RR2.opus
</region>

<region>
hivel=127
key=C#3
lovel=1
offset=937
sample=3Trombones_staccatissimo_PP_C#3_RR2.opus
</region>

<region>
hivel=127
key=B4
lovel=1
offset=15063
sample=3Trombones_staccatissimo_PP_B4_RR2.opus
</region>

<region>
hivel=127
key=B3
lovel=1
offset=885
sample=3Trombones_staccatissimo_PP_B3_RR2.opus
</region>

<region>
hivel=127
key=B2
lovel=1
offset=1311
sample=3Trombones_staccatissimo_PP_B2_RR2.opus
</region>

<region>
hivel=127
key=A4
lovel=1
offset=1091
sample=3Trombones_staccatissimo_PP_A4_RR2.opus
</region>

<region>
hivel=127
key=A3
lovel=1
offset=603
sample=3Trombones_staccatissimo_PP_A3_RR2.opus
</region>

<region>
hivel=127
key=A2
lovel=1
offset=752
sample=3Trombones_staccatissimo_PP_A2_RR2.opus
</region>

<region>
hivel=127
key=A#4
lovel=1
offset=1773
sample=3Trombones_staccatissimo_PP_A#4_RR2.opus
</region>

<region>
hivel=127
key=A#3
lovel=1
offset=296
sample=3Trombones_staccatissimo_PP_A#3_RR2.opus
</region>

<region>
hivel=127
key=A#2
lovel=1
offset=1106
sample=3Trombones_staccatissimo_PP_A#2_RR2.opus
</region>
</group>

<group>
group_label=RR3_85-127
seq_length=8
seq_position=3
xf_cccurve=gain
xfin_hicc1=127
xfin_locc1=85
xfout_hicc1=127
xfout_locc1=127

<region>
hivel=127
key=G4
lovel=1
offset=142
sample=3Trombones_staccatissimo_FF_G4_RR3.opus
</region>

<region>
hivel=127
key=G3
lovel=1
offset=390
sample=3Trombones_staccatissimo_FF_G3_RR3.opus
</region>

<region>
hivel=127
key=G2
lovel=1
offset=530
sample=3Trombones_staccatissimo_FF_G2_RR3.opus
</region>

<region>
hivel=127
key=G#4
lovel=1
offset=1127
sample=3Trombones_staccatissimo_FF_G#4_RR3.opus
</region>

<region>
hivel=127
key=G#3
lovel=1
offset=223
sample=3Trombones_staccatissimo_FF_G#3_RR3.opus
</region>

<region>
hivel=127
key=G#2
lovel=1
offset=499
sample=3Trombones_staccatissimo_FF_G#2_RR3.opus
</region>

<region>
hivel=127
key=F4
lovel=1
offset=1117
sample=3Trombones_staccatissimo_FF_F4_RR3.opus
</region>

<region>
hivel=127
key=F3
lovel=1
sample=3Trombones_staccatissimo_FF_F3_RR3.opus
</region>

<region>
hivel=127
key=F2
lovel=1
offset=1222
sample=3Trombones_staccatissimo_FF_F2_RR3.opus
</region>

<region>
hivel=127
key=F#4
lovel=1
sample=3Trombones_staccatissimo_FF_F#4_RR3.opus
</region>

<region>
hivel=127
key=F#3
lovel=1
offset=422
sample=3Trombones_staccatissimo_FF_F#3_RR3.opus
</region>

<region>
hivel=127
key=F#2
lovel=1
offset=95
sample=3Trombones_staccatissimo_FF_F#2_RR3.opus
</region>

<region>
hivel=127
key=E4
lovel=1
offset=729
sample=3Trombones_staccatissimo_FF_E4_RR3.opus
</region>

<region>
hivel=127
key=E3
lovel=1
offset=101
sample=3Trombones_staccatissimo_FF_E3_RR3.opus
</region>

<region>
hivel=127
key=E2
lovel=1
offset=1815
sample=3Trombones_staccatissimo_FF_E2_RR3.opus
</region>

<region>
hivel=127
key=D4
lovel=1
offset=357
sample=3Trombones_staccatissimo_FF_D4_RR3.opus
</region>

<region>
hivel=127
key=D3
lovel=1
offset=253
sample=3Trombones_staccatissimo_FF_D3_RR3.opus
</region>

<region>
hivel=127
key=D#4
lovel=1
offset=275
sample=3Trombones_staccatissimo_FF_D#4_RR3.opus
</region>

<region>
hivel=127
key=D#3
lovel=1
sample=3Trombones_staccatissimo_FF_D#3_RR3.opus
</region>

<region>
hivel=127
key=C5
lovel=1
offset=916
sample=3Trombones_staccatissimo_FF_C5_RR3.opus
</region>

<region>
hivel=127
key=C4
lovel=1
offset=442
sample=3Trombones_staccatissimo_FF_C4_RR3.opus
</region>

<region>
hivel=127
key=C3
lovel=1
offset=1045
sample=3Trombones_staccatissimo_FF_C3_RR3.opus
</region>

<region>
hivel=127
key=C#4
lovel=1
offset=234
sample=3Trombones_staccatissimo_FF_C#4_RR3.opus
</region>

<region>
hivel=127
key=C#3
lovel=1
offset=1275
sample=3Trombones_staccatissimo_FF_C#3_RR3.opus
</region>

<region>
hivel=127
key=B4
lovel=1
offset=20
sample=3Trombones_staccatissimo_FF_B4_RR3.opus
</region>

<region>
hivel=127
key=B3
lovel=1
offset=133
sample=3Trombones_staccatissimo_FF_B3_RR3.opus
</region>

<region>
hivel=127
key=B2
lovel=1
offset=649
sample=3Trombones_staccatissimo_FF_B2_RR3.opus
</region>

<region>
hivel=127
key=A4
lovel=1
offset=1518
sample=3Trombones_staccatissimo_FF_A4_RR3.opus
</region>

<region>
hivel=127
key=A3
lovel=1
offset=920
sample=3Trombones_staccatissimo_FF_A3_RR3.opus
</region>

<region>
hivel=127
key=A2
lovel=1
sample=3Trombones_staccatissimo_FF_A2_RR3.opus
</region>

<region>
hivel=127
key=A#4
lovel=1
offset=951
sample=3Trombones_staccatissimo_FF_A#4_RR3.opus
</region>

<region>
hivel=127
key=A#3
lovel=1
offset=346
sample=3Trombones_staccatissimo_FF_A#3_RR3.opus
</region>

<region>
hivel=127
key=A#2
lovel=1
offset=167
sample=3Trombones_staccatissimo_FF_A#2_RR3.opus
</region>
</group>

<group>
group_label=RR3_43-84
seq_length=8
seq_position=3
xf_cccurve=gain
xfin_hicc1=84
xfin_locc1=43
xfout_hicc1=125
xfout_locc1=84

<region>
hivel=127
key=G4
lovel=1
sample=3Trombones_staccatissimo_MF_G4_RR3.opus
</region>

<region>
hivel=127
key=G3
lovel=1
offset=829
sample=3Trombones_staccatissimo_MF_G3_RR3.opus
</region>

<region>
hivel=127
key=G2
lovel=1
offset=1383
sample=3Trombones_staccatissimo_MF_G2_RR3.opus
</region>

<region>
hivel=127
key=G#4
lovel=1
offset=788
sample=3Trombones_staccatissimo_MF_G#4_RR3.opus
</region>

<region>
hivel=127
key=G#3
lovel=1
offset=254
sample=3Trombones_staccatissimo_MF_G#3_RR3.opus
</region>

<region>
hivel=127
key=G#2
lovel=1
offset=1328
sample=3Trombones_staccatissimo_MF_G#2_RR3.opus
</region>

<region>
hivel=127
key=F4
lovel=1
offset=396
sample=3Trombones_staccatissimo_MF_F4_RR3.opus
</region>

<region>
hivel=127
key=F3
lovel=1
offset=1364
sample=3Trombones_staccatissimo_MF_F3_RR3.opus
</region>

<region>
hivel=127
key=F2
lovel=1
offset=570
sample=3Trombones_staccatissimo_MF_F2_RR3.opus
</region>

<region>
hivel=127
key=F#4
lovel=1
offset=236
sample=3Trombones_staccatissimo_MF_F#4_RR3.opus
</region>

<region>
hivel=127
key=F#3
lovel=1
offset=495
sample=3Trombones_staccatissimo_MF_F#3_RR3.opus
</region>

<region>
hivel=127
key=F#2
lovel=1
offset=1098
sample=3Trombones_staccatissimo_MF_F#2_RR3.opus
</region>

<region>
hivel=127
key=E4
lovel=1
offset=504
sample=3Trombones_staccatissimo_MF_E4_RR3.opus
</region>

<region>
hivel=127
key=E3
lovel=1
offset=426
sample=3Trombones_staccatissimo_MF_E3_RR3.opus
</region>

<region>
hivel=127
key=E2
lovel=1
offset=1793
sample=3Trombones_staccatissimo_MF_E2_RR3.opus
</region>

<region>
hivel=127
key=D4
lovel=1
offset=824
sample=3Trombones_staccatissimo_MF_D4_RR3.opus
</region>

<region>
hivel=127
key=D3
lovel=1
offset=483
sample=3Trombones_staccatissimo_MF_D3_RR3.opus
</region>

<region>
hivel=127
key=D#4
lovel=1
offset=2422
sample=3Trombones_staccatissimo_MF_D#4_RR3.opus
</region>

<region>
hivel=127
key=D#3
lovel=1
offset=1300
sample=3Trombones_staccatissimo_MF_D#3_RR3.opus
</region>

<region>
hivel=127
key=C5
lovel=1
offset=631
sample=3Trombones_staccatissimo_MF_C5_RR3.opus
</region>

<region>
hivel=127
key=C4
lovel=1
offset=407
sample=3Trombones_staccatissimo_MF_C4_RR3.opus
</region>

<region>
hivel=127
key=C3
lovel=1
offset=1367
sample=3Trombones_staccatissimo_MF_C3_RR3.opus
</region>

<region>
hivel=127
key=C#4
lovel=1
offset=750
sample=3Trombones_staccatissimo_MF_C#4_RR3.opus
</region>

<region>
hivel=127
key=C#3
lovel=1
offset=1350
sample=3Trombones_staccatissimo_MF_C#3_RR3.opus
</region>

<region>
hivel=127
key=B4
lovel=1
offset=492
sample=3Trombones_staccatissimo_MF_B4_RR3.opus
</region>

<region>
hivel=127
key=B3
lovel=1
offset=308
sample=3Trombones_staccatissimo_MF_B3_RR3.opus
</region>

<region>
hivel=127
key=B2
lovel=1
offset=1850
sample=3Trombones_staccatissimo_MF_B2_RR3.opus
</region>

<region>
hivel=127
key=A4
lovel=1
offset=1850
sample=3Trombones_staccatissimo_MF_A4_RR3.opus
</region>

<region>
hivel=127
key=A3
lovel=1
offset=624
sample=3Trombones_staccatissimo_MF_A3_RR3.opus
</region>

<region>
hivel=127
key=A2
lovel=1
offset=751
sample=3Trombones_staccatissimo_MF_A2_RR3.opus
</region>

<region>
hivel=127
key=A#4
lovel=1
offset=289
sample=3Trombones_staccatissimo_MF_A#4_RR3.opus
</region>

<region>
hivel=127
key=A#3
lovel=1
offset=509
sample=3Trombones_staccatissimo_MF_A#3_RR3.opus
</region>

<region>
hivel=127
key=A#2
lovel=1
offset=1098
sample=3Trombones_staccatissimo_MF_A#2_RR3.opus
</region>
</group>

<group>
group_label=RR3_0-42
seq_length=8
seq_position=3
xf_cccurve=gain
xfin_hicc1=42
xfout_hicc1=84
xfout_locc1=42

<region>
hivel=127
key=G4
lovel=1
offset=528
sample=3Trombones_staccatissimo_PP_G4_RR3.opus
</region>

<region>
hivel=127
key=G3
lovel=1
offset=272
sample=3Trombones_staccatissimo_PP_G3_RR3.opus
</region>

<region>
hivel=127
key=G2
lovel=1
offset=846
sample=3Trombones_staccatissimo_PP_G2_RR3.opus
</region>

<region>
hivel=127
key=G#4
lovel=1
offset=593
sample=3Trombones_staccatissimo_PP_G#4_RR3.opus
</region>

<region>
hivel=127
key=G#3
lovel=1
offset=668
sample=3Trombones_staccatissimo_PP_G#3_RR3.opus
</region>

<region>
hivel=127
key=G#2
lovel=1
offset=1518
sample=3Trombones_staccatissimo_PP_G#2_RR3.opus
</region>

<region>
hivel=127
key=F4
lovel=1
offset=380
sample=3Trombones_staccatissimo_PP_F4_RR3.opus
</region>

<region>
hivel=127
key=F3
lovel=1
offset=769
sample=3Trombones_staccatissimo_PP_F3_RR3.opus
</region>

<region>
hivel=127
key=F2
lovel=1
sample=3Trombones_staccatissimo_PP_F2_RR3.opus
</region>

<region>
hivel=127
key=F#4
lovel=1
offset=593
sample=3Trombones_staccatissimo_PP_F#4_RR3.opus
</region>

<region>
hivel=127
key=F#3
lovel=1
offset=1069
sample=3Trombones_staccatissimo_PP_F#3_RR3.opus
</region>

<region>
hivel=127
key=F#2
lovel=1
offset=535
sample=3Trombones_staccatissimo_PP_F#2_RR3.opus
</region>

<region>
hivel=127
key=E4
lovel=1
offset=675
sample=3Trombones_staccatissimo_PP_E4_RR3.opus
</region>

<region>
hivel=127
key=E3
lovel=1
offset=766
sample=3Trombones_staccatissimo_PP_E3_RR3.opus
</region>

<region>
hivel=127
key=E2
lovel=1
offset=1362
sample=3Trombones_staccatissimo_PP_E2_RR3.opus
</region>

<region>
hivel=127
key=D4
lovel=1
offset=1261
sample=3Trombones_staccatissimo_PP_D4_RR3.opus
</region>

<region>
hivel=127
key=D3
lovel=1
offset=1397
sample=3Trombones_staccatissimo_PP_D3_RR3.opus
</region>

<region>
hivel=127
key=D#4
lovel=1
offset=738
sample=3Trombones_staccatissimo_PP_D#4_RR3.opus
</region>

<region>
hivel=127
key=D#3
lovel=1
offset=1000
sample=3Trombones_staccatissimo_PP_D#3_RR3.opus
</region>

<region>
hivel=127
key=C5
lovel=1
offset=1349
sample=3Trombones_staccatissimo_PP_C5_RR3.opus
</region>

<region>
hivel=127
key=C4
lovel=1
offset=663
sample=3Trombones_staccatissimo_PP_C4_RR3.opus
</region>

<region>
hivel=127
key=C3
lovel=1
offset=635
sample=3Trombones_staccatissimo_PP_C3_RR3.opus
</region>

<region>
hivel=127
key=C#4
lovel=1
offset=913
sample=3Trombones_staccatissimo_PP_C#4_RR3.opus
</region>

<region>
hivel=127
key=C#3
lovel=1
offset=1194
sample=3Trombones_staccatissimo_PP_C#3_RR3.opus
</region>

<region>
hivel=127
key=B4
lovel=1
sample=3Trombones_staccatissimo_PP_B4_RR3.opus
</region>

<region>
hivel=127
key=B3
lovel=1
offset=889
sample=3Trombones_staccatissimo_PP_B3_RR3.opus
</region>

<region>
hivel=127
key=B2
lovel=1
offset=1123
sample=3Trombones_staccatissimo_PP_B2_RR3.opus
</region>

<region>
hivel=127
key=A4
lovel=1
offset=1480
sample=3Trombones_staccatissimo_PP_A4_RR3.opus
</region>

<region>
hivel=127
key=A3
lovel=1
offset=1403
sample=3Trombones_staccatissimo_PP_A3_RR3.opus
</region>

<region>
hivel=127
key=A2
lovel=1
offset=1175
sample=3Trombones_staccatissimo_PP_A2_RR3.opus
</region>

<region>
hivel=127
key=A#4
lovel=1
offset=1175
sample=3Trombones_staccatissimo_PP_A#4_RR3.opus
</region>

<region>
hivel=127
key=A#3
lovel=1
offset=521
sample=3Trombones_staccatissimo_PP_A#3_RR3.opus
</region>

<region>
hivel=127
key=A#2
lovel=1
offset=553
sample=3Trombones_staccatissimo_PP_A#2_RR3.opus
</region>
</group>

<group>
group_label=RR4_85-127
seq_length=8
seq_position=4
xf_cccurve=gain
xfin_hicc1=127
xfin_locc1=85
xfout_hicc1=127
xfout_locc1=127

<region>
hivel=127
key=G4
lovel=1
offset=269
sample=3Trombones_staccatissimo_FF_G4_RR4.opus
</region>

<region>
hivel=127
key=G3
lovel=1
offset=787
sample=3Trombones_staccatissimo_FF_G3_RR4.opus
</region>

<region>
hivel=127
key=G2
lovel=1
offset=544
sample=3Trombones_staccatissimo_FF_G2_RR4.opus
</region>

<region>
hivel=127
key=G#4
lovel=1
offset=416
sample=3Trombones_staccatissimo_FF_G#4_RR4.opus
</region>

<region>
hivel=127
key=G#3
lovel=1
offset=508
sample=3Trombones_staccatissimo_FF_G#3_RR4.opus
</region>

<region>
hivel=127
key=G#2
lovel=1
offset=931
sample=3Trombones_staccatissimo_FF_G#2_RR4.opus
</region>

<region>
hivel=127
key=F4
lovel=1
sample=3Trombones_staccatissimo_FF_F4_RR4.opus
</region>

<region>
hivel=127
key=F3
lovel=1
sample=3Trombones_staccatissimo_FF_F3_RR4.opus
</region>

<region>
hivel=127
key=F2
lovel=1
offset=1301
sample=3Trombones_staccatissimo_FF_F2_RR4.opus
</region>

<region>
hivel=127
key=F#4
lovel=1
offset=253
sample=3Trombones_staccatissimo_FF_F#4_RR4.opus
</region>

<region>
hivel=127
key=F#3
lovel=1
offset=766
sample=3Trombones_staccatissimo_FF_F#3_RR4.opus
</region>

<region>
hivel=127
key=F#2
lovel=1
offset=1087
sample=3Trombones_staccatissimo_FF_F#2_RR4.opus
</region>

<region>
hivel=127
key=E4
lovel=1
offset=241
sample=3Trombones_staccatissimo_FF_E4_RR4.opus
</region>

<region>
hivel=127
key=E3
lovel=1
offset=190
sample=3Trombones_staccatissimo_FF_E3_RR4.opus
</region>

<region>
hivel=127
key=E2
lovel=1
offset=1334
sample=3Trombones_staccatissimo_FF_E2_RR4.opus
</region>

<region>
hivel=127
key=D4
lovel=1
offset=442
sample=3Trombones_staccatissimo_FF_D4_RR4.opus
</region>

<region>
hivel=127
key=D3
lovel=1
offset=518
sample=3Trombones_staccatissimo_FF_D3_RR4.opus
</region>

<region>
hivel=127
key=D#4
lovel=1
offset=779
sample=3Trombones_staccatissimo_FF_D#4_RR4.opus
</region>

<region>
hivel=127
key=D#3
lovel=1
offset=181
sample=3Trombones_staccatissimo_FF_D#3_RR4.opus
</region>

<region>
hivel=127
key=C5
lovel=1
offset=1317
sample=3Trombones_staccatissimo_FF_C5_RR4.opus
</region>

<region>
hivel=127
key=C4
lovel=1
offset=640
sample=3Trombones_staccatissimo_FF_C4_RR4.opus
</region>

<region>
hivel=127
key=C3
lovel=1
offset=719
sample=3Trombones_staccatissimo_FF_C3_RR4.opus
</region>

<region>
hivel=127
key=C#4
lovel=1
offset=404
sample=3Trombones_staccatissimo_FF_C#4_RR4.opus
</region>

<region>
hivel=127
key=C#3
lovel=1
offset=1395
sample=3Trombones_staccatissimo_FF_C#3_RR4.opus
</region>

<region>
hivel=127
key=B4
lovel=1
offset=1165
sample=3Trombones_staccatissimo_FF_B4_RR4.opus
</region>

<region>
hivel=127
key=B3
lovel=1
offset=522
sample=3Trombones_staccatissimo_FF_B3_RR4.opus
</region>

<region>
hivel=127
key=B2
lovel=1
offset=1206
sample=3Trombones_staccatissimo_FF_B2_RR4.opus
</region>

<region>
hivel=127
key=A4
lovel=1
offset=290
sample=3Trombones_staccatissimo_FF_A4_RR4.opus
</region>

<region>
hivel=127
key=A3
lovel=1
offset=875
sample=3Trombones_staccatissimo_FF_A3_RR4.opus
</region>

<region>
hivel=127
key=A2
lovel=1
offset=538
sample=3Trombones_staccatissimo_FF_A2_RR4.opus
</region>

<region>
hivel=127
key=A#4
lovel=1
offset=869
sample=3Trombones_staccatissimo_FF_A#4_RR4.opus
</region>

<region>
hivel=127
key=A#3
lovel=1
offset=324
sample=3Trombones_staccatissimo_FF_A#3_RR4.opus
</region>

<region>
hivel=127
key=A#2
lovel=1
offset=384
sample=3Trombones_staccatissimo_FF_A#2_RR4.opus
</region>
</group>

<group>
group_label=RR4_43-84
seq_length=8
seq_position=4
xf_cccurve=gain
xfin_hicc1=84
xfin_locc1=43
xfout_hicc1=125
xfout_locc1=84

<region>
hivel=127
key=G4
lovel=1
offset=212
sample=3Trombones_staccatissimo_MF_G4_RR4.opus
</region>

<region>
hivel=127
key=G3
lovel=1
offset=985
sample=3Trombones_staccatissimo_MF_G3_RR4.opus
</region>

<region>
hivel=127
key=G2
lovel=1
offset=2345
sample=3Trombones_staccatissimo_MF_G2_RR4.opus
</region>

<region>
hivel=127
key=G#4
lovel=1
offset=1035
sample=3Trombones_staccatissimo_MF_G#4_RR4.opus
</region>

<region>
hivel=127
key=G#3
lovel=1
offset=446
sample=3Trombones_staccatissimo_MF_G#3_RR4.opus
</region>

<region>
hivel=127
key=G#2
lovel=1
offset=1316
sample=3Trombones_staccatissimo_MF_G#2_RR4.opus
</region>

<region>
hivel=127
key=F4
lovel=1
offset=702
sample=3Trombones_staccatissimo_MF_F4_RR4.opus
</region>

<region>
hivel=127
key=F3
lovel=1
offset=1166
sample=3Trombones_staccatissimo_MF_F3_RR4.opus
</region>

<region>
hivel=127
key=F2
lovel=1
offset=676
sample=3Trombones_staccatissimo_MF_F2_RR4.opus
</region>

<region>
hivel=127
key=F#4
lovel=1
offset=545
sample=3Trombones_staccatissimo_MF_F#4_RR4.opus
</region>

<region>
hivel=127
key=F#3
lovel=1
offset=1588
sample=3Trombones_staccatissimo_MF_F#3_RR4.opus
</region>

<region>
hivel=127
key=F#2
lovel=1
offset=1587
sample=3Trombones_staccatissimo_MF_F#2_RR4.opus
</region>

<region>
hivel=127
key=E4
lovel=1
offset=434
sample=3Trombones_staccatissimo_MF_E4_RR4.opus
</region>

<region>
hivel=127
key=E3
lovel=1
offset=987
sample=3Trombones_staccatissimo_MF_E3_RR4.opus
</region>

<region>
hivel=127
key=E2
lovel=1
offset=1348
sample=3Trombones_staccatissimo_MF_E2_RR4.opus
</region>

<region>
hivel=127
key=D4
lovel=1
offset=274
sample=3Trombones_staccatissimo_MF_D4_RR4.opus
</region>

<region>
hivel=127
key=D3
lovel=1
offset=912
sample=3Trombones_staccatissimo_MF_D3_RR4.opus
</region>

<region>
hivel=127
key=D#4
lovel=1
offset=483
sample=3Trombones_staccatissimo_MF_D#4_RR4.opus
</region>

<region>
hivel=127
key=D#3
lovel=1
offset=1590
sample=3Trombones_staccatissimo_MF_D#3_RR4.opus
</region>

<region>
hivel=127
key=C5
lovel=1
offset=161
sample=3Trombones_staccatissimo_MF_C5_RR4.opus
</region>

<region>
hivel=127
key=C4
lovel=1
offset=444
sample=3Trombones_staccatissimo_MF_C4_RR4.opus
</region>

<region>
hivel=127
key=C3
lovel=1
offset=1708
sample=3Trombones_staccatissimo_MF_C3_RR4.opus
</region>

<region>
hivel=127
key=C#4
lovel=1
offset=247
sample=3Trombones_staccatissimo_MF_C#4_RR4.opus
</region>

<region>
hivel=127
key=C#3
lovel=1
offset=1636
sample=3Trombones_staccatissimo_MF_C#3_RR4.opus
</region>

<region>
hivel=127
key=B4
lovel=1
offset=1335
sample=3Trombones_staccatissimo_MF_B4_RR4.opus
</region>

<region>
hivel=127
key=B3
lovel=1
offset=1515
sample=3Trombones_staccatissimo_MF_B3_RR4.opus
</region>

<region>
hivel=127
key=B2
lovel=1
offset=1071
sample=3Trombones_staccatissimo_MF_B2_RR4.opus
</region>

<region>
hivel=127
key=A4
lovel=1
offset=619
sample=3Trombones_staccatissimo_MF_A4_RR4.opus
</region>

<region>
hivel=127
key=A3
lovel=1
offset=380
sample=3Trombones_staccatissimo_MF_A3_RR4.opus
</region>

<region>
hivel=127
key=A2
lovel=1
offset=398
sample=3Trombones_staccatissimo_MF_A2_RR4.opus
</region>

<region>
hivel=127
key=A#4
lovel=1
offset=1929
sample=3Trombones_staccatissimo_MF_A#4_RR4.opus
</region>

<region>
hivel=127
key=A#3
lovel=1
offset=133
sample=3Trombones_staccatissimo_MF_A#3_RR4.opus
</region>

<region>
hivel=127
key=A#2
lovel=1
offset=1123
sample=3Trombones_staccatissimo_MF_A#2_RR4.opus
</region>
</group>

<group>
group_label=RR4_0-42
seq_length=8
seq_position=4
xf_cccurve=gain
xfin_hicc1=42
xfout_hicc1=84
xfout_locc1=42

<region>
hivel=127
key=G4
lovel=1
offset=638
sample=3Trombones_staccatissimo_PP_G4_RR4.opus
</region>

<region>
hivel=127
key=G3
lovel=1
offset=1949
sample=3Trombones_staccatissimo_PP_G3_RR4.opus
</region>

<region>
hivel=127
key=G2
lovel=1
offset=916
sample=3Trombones_staccatissimo_PP_G2_RR4.opus
</region>

<region>
hivel=127
key=G#4
lovel=1
offset=1323
sample=3Trombones_staccatissimo_PP_G#4_RR4.opus
</region>

<region>
hivel=127
key=G#3
lovel=1
offset=670
sample=3Trombones_staccatissimo_PP_G#3_RR4.opus
</region>

<region>
hivel=127
key=G#2
lovel=1
offset=1578
sample=3Trombones_staccatissimo_PP_G#2_RR4.opus
</region>

<region>
hivel=127
key=F4
lovel=1
offset=1551
sample=3Trombones_staccatissimo_PP_F4_RR4.opus
</region>

<region>
hivel=127
key=F3
lovel=1
offset=1136
sample=3Trombones_staccatissimo_PP_F3_RR4.opus
</region>

<region>
hivel=127
key=F2
lovel=1
sample=3Trombones_staccatissimo_PP_F2_RR4.opus
</region>

<region>
hivel=127
key=F#4
lovel=1
offset=1164
sample=3Trombones_staccatissimo_PP_F#4_RR4.opus
</region>

<region>
hivel=127
key=F#3
lovel=1
offset=552
sample=3Trombones_staccatissimo_PP_F#3_RR4.opus
</region>

<region>
hivel=127
key=F#2
lovel=1
offset=1495
sample=3Trombones_staccatissimo_PP_F#2_RR4.opus
</region>

<region>
hivel=127
key=E4
lovel=1
offset=691
sample=3Trombones_staccatissimo_PP_E4_RR4.opus
</region>

<region>
hivel=127
key=E3
lovel=1
offset=398
sample=3Trombones_staccatissimo_PP_E3_RR4.opus
</region>

<region>
hivel=127
key=E2
lovel=1
offset=1357
sample=3Trombones_staccatissimo_PP_E2_RR4.opus
</region>

<region>
hivel=127
key=D4
lovel=1
offset=836
sample=3Trombones_staccatissimo_PP_D4_RR4.opus
</region>

<region>
hivel=127
key=D3
lovel=1
offset=1771
sample=3Trombones_staccatissimo_PP_D3_RR4.opus
</region>

<region>
hivel=127
key=D#4
lovel=1
offset=406
sample=3Trombones_staccatissimo_PP_D#4_RR4.opus
</region>

<region>
hivel=127
key=D#3
lovel=1
offset=449
sample=3Trombones_staccatissimo_PP_D#3_RR4.opus
</region>

<region>
hivel=127
key=C5
lovel=1
offset=504
sample=3Trombones_staccatissimo_PP_C5_RR4.opus
</region>

<region>
hivel=127
key=C4
lovel=1
offset=411
sample=3Trombones_staccatissimo_PP_C4_RR4.opus
</region>

<region>
hivel=127
key=C3
lovel=1
offset=1006
sample=3Trombones_staccatissimo_PP_C3_RR4.opus
</region>

<region>
hivel=127
key=C#4
lovel=1
offset=894
sample=3Trombones_staccatissimo_PP_C#4_RR4.opus
</region>

<region>
hivel=127
key=C#3
lovel=1
offset=900
sample=3Trombones_staccatissimo_PP_C#3_RR4.opus
</region>

<region>
hivel=127
key=B4
lovel=1
offset=308
sample=3Trombones_staccatissimo_PP_B4_RR4.opus
</region>

<region>
hivel=127
key=B3
lovel=1
offset=711
sample=3Trombones_staccatissimo_PP_B3_RR4.opus
</region>

<region>
hivel=127
key=B2
lovel=1
offset=940
sample=3Trombones_staccatissimo_PP_B2_RR4.opus
</region>

<region>
hivel=127
key=A4
lovel=1
offset=1280
sample=3Trombones_staccatissimo_PP_A4_RR4.opus
</region>

<region>
hivel=127
key=A3
lovel=1
offset=603
sample=3Trombones_staccatissimo_PP_A3_RR4.opus
</region>

<region>
hivel=127
key=A2
lovel=1
offset=818
sample=3Trombones_staccatissimo_PP_A2_RR4.opus
</region>

<region>
hivel=127
key=A#4
lovel=1
offset=568
sample=3Trombones_staccatissimo_PP_A#4_RR4.opus
</region>

<region>
hivel=127
key=A#3
lovel=1
offset=1306
sample=3Trombones_staccatissimo_PP_A#3_RR4.opus
</region>

<region>
hivel=127
key=A#2
lovel=1
offset=2895
sample=3Trombones_staccatissimo_PP_A#2_RR4.opus
</region>
</group>

<group>
group_label=RR5_85-127
seq_length=8
seq_position=5
xf_cccurve=gain
xfin_hicc1=127
xfin_locc1=85
xfout_hicc1=127
xfout_locc1=127

<region>
hivel=127
key=G4
lovel=1
offset=510
sample=3Trombones_staccatissimo_FF_G4_RR5.opus
</region>

<region>
hivel=127
key=G3
lovel=1
offset=761
sample=3Trombones_staccatissimo_FF_G3_RR5.opus
</region>

<region>
hivel=127
key=G2
lovel=1
offset=545
sample=3Trombones_staccatissimo_FF_G2_RR5.opus
</region>

<region>
hivel=127
key=G#4
lovel=1
offset=359
sample=3Trombones_staccatissimo_FF_G#4_RR5.opus
</region>

<region>
hivel=127
key=G#3
lovel=1
offset=219
sample=3Trombones_staccatissimo_FF_G#3_RR5.opus
</region>

<region>
hivel=127
key=G#2
lovel=1
offset=641
sample=3Trombones_staccatissimo_FF_G#2_RR5.opus
</region>

<region>
hivel=127
key=F4
lovel=1
offset=59
sample=3Trombones_staccatissimo_FF_F4_RR5.opus
</region>

<region>
hivel=127
key=F3
lovel=1
offset=305
sample=3Trombones_staccatissimo_FF_F3_RR5.opus
</region>

<region>
hivel=127
key=F2
lovel=1
offset=1231
sample=3Trombones_staccatissimo_FF_F2_RR5.opus
</region>

<region>
hivel=127
key=F#4
lovel=1
offset=377
sample=3Trombones_staccatissimo_FF_F#4_RR5.opus
</region>

<region>
hivel=127
key=F#3
lovel=1
offset=530
sample=3Trombones_staccatissimo_FF_F#3_RR5.opus
</region>

<region>
hivel=127
key=F#2
lovel=1
offset=599
sample=3Trombones_staccatissimo_FF_F#2_RR5.opus
</region>

<region>
hivel=127
key=E4
lovel=1
offset=980
sample=3Trombones_staccatissimo_FF_E4_RR5.opus
</region>

<region>
hivel=127
key=E3
lovel=1
offset=700
sample=3Trombones_staccatissimo_FF_E3_RR5.opus
</region>

<region>
hivel=127
key=E2
lovel=1
offset=707
sample=3Trombones_staccatissimo_FF_E2_RR5.opus
</region>

<region>
hivel=127
key=D4
lovel=1
offset=735
sample=3Trombones_staccatissimo_FF_D4_RR5.opus
</region>

<region>
hivel=127
key=D3
lovel=1
offset=499
sample=3Trombones_staccatissimo_FF_D3_RR5.opus
</region>

<region>
hivel=127
key=D#4
lovel=1
offset=466
sample=3Trombones_staccatissimo_FF_D#4_RR5.opus
</region>

<region>
hivel=127
key=D#3
lovel=1
offset=773
sample=3Trombones_staccatissimo_FF_D#3_RR5.opus
</region>

<region>
hivel=127
key=C5
lovel=1
offset=488
sample=3Trombones_staccatissimo_FF_C5_RR5.opus
</region>

<region>
hivel=127
key=C4
lovel=1
offset=493
sample=3Trombones_staccatissimo_FF_C4_RR5.opus
</region>

<region>
hivel=127
key=C3
lovel=1
offset=1504
sample=3Trombones_staccatissimo_FF_C3_RR5.opus
</region>

<region>
hivel=127
key=C#4
lovel=1
offset=598
sample=3Trombones_staccatissimo_FF_C#4_RR5.opus
</region>

<region>
hivel=127
key=C#3
lovel=1
offset=898
sample=3Trombones_staccatissimo_FF_C#3_RR5.opus
</region>

<region>
hivel=127
key=B4
lovel=1
offset=773
sample=3Trombones_staccatissimo_FF_B4_RR5.opus
</region>

<region>
hivel=127
key=B3
lovel=1
offset=313
sample=3Trombones_staccatissimo_FF_B3_RR5.opus
</region>

<region>
hivel=127
key=B2
lovel=1
offset=699
sample=3Trombones_staccatissimo_FF_B2_RR5.opus
</region>

<region>
hivel=127
key=A4
lovel=1
offset=1110
sample=3Trombones_staccatissimo_FF_A4_RR5.opus
</region>

<region>
hivel=127
key=A3
lovel=1
offset=198
sample=3Trombones_staccatissimo_FF_A3_RR5.opus
</region>

<region>
hivel=127
key=A2
lovel=1
offset=804
sample=3Trombones_staccatissimo_FF_A2_RR5.opus
</region>

<region>
hivel=127
key=A#4
lovel=1
offset=151
sample=3Trombones_staccatissimo_FF_A#4_RR5.opus
</region>

<region>
hivel=127
key=A#3
lovel=1
offset=716
sample=3Trombones_staccatissimo_FF_A#3_RR5.opus
</region>

<region>
hivel=127
key=A#2
lovel=1
offset=381
sample=3Trombones_staccatissimo_FF_A#2_RR5.opus
</region>
</group>

<group>
group_label=RR5_43-84
seq_length=8
seq_position=5
xf_cccurve=gain
xfin_hicc1=84
xfin_locc1=43
xfout_hicc1=125
xfout_locc1=84

<region>
hivel=127
key=G4
lovel=1
offset=508
sample=3Trombones_staccatissimo_MF_G4_RR5.opus
</region>

<region>
hivel=127
key=G3
lovel=1
offset=876
sample=3Trombones_staccatissimo_MF_G3_RR5.opus
</region>

<region>
hivel=127
key=G2
lovel=1
offset=939
sample=3Trombones_staccatissimo_MF_G2_RR5.opus
</region>

<region>
hivel=127
key=G#4
lovel=1
offset=678
sample=3Trombones_staccatissimo_MF_G#4_RR5.opus
</region>

<region>
hivel=127
key=G#3
lovel=1
offset=689
sample=3Trombones_staccatissimo_MF_G#3_RR5.opus
</region>

<region>
hivel=127
key=G#2
lovel=1
offset=1282
sample=3Trombones_staccatissimo_MF_G#2_RR5.opus
</region>

<region>
hivel=127
key=F4
lovel=1
offset=417
sample=3Trombones_staccatissimo_MF_F4_RR5.opus
</region>

<region>
hivel=127
key=F3
lovel=1
offset=321
sample=3Trombones_staccatissimo_MF_F3_RR5.opus
</region>

<region>
hivel=127
key=F2
lovel=1
offset=1250
sample=3Trombones_staccatissimo_MF_F2_RR5.opus
</region>

<region>
hivel=127
key=F#4
lovel=1
offset=399
sample=3Trombones_staccatissimo_MF_F#4_RR5.opus
</region>

<region>
hivel=127
key=F#3
lovel=1
offset=8
sample=3Trombones_staccatissimo_MF_F#3_RR5.opus
</region>

<region>
hivel=127
key=F#2
lovel=1
offset=1257
sample=3Trombones_staccatissimo_MF_F#2_RR5.opus
</region>

<region>
hivel=127
key=E4
lovel=1
offset=413
sample=3Trombones_staccatissimo_MF_E4_RR5.opus
</region>

<region>
hivel=127
key=E3
lovel=1
offset=700
sample=3Trombones_staccatissimo_MF_E3_RR5.opus
</region>

<region>
hivel=127
key=E2
lovel=1
offset=765
sample=3Trombones_staccatissimo_MF_E2_RR5.opus
</region>

<region>
hivel=127
key=D4
lovel=1
offset=928
sample=3Trombones_staccatissimo_MF_D4_RR5.opus
</region>

<region>
hivel=127
key=D3
lovel=1
offset=704
sample=3Trombones_staccatissimo_MF_D3_RR5.opus
</region>

<region>
hivel=127
key=D#4
lovel=1
offset=971
sample=3Trombones_staccatissimo_MF_D#4_RR5.opus
</region>

<region>
hivel=127
key=D#3
lovel=1
offset=1404
sample=3Trombones_staccatissimo_MF_D#3_RR5.opus
</region>

<region>
hivel=127
key=C5
lovel=1
offset=518
sample=3Trombones_staccatissimo_MF_C5_RR5.opus
</region>

<region>
hivel=127
key=C4
lovel=1
offset=621
sample=3Trombones_staccatissimo_MF_C4_RR5.opus
</region>

<region>
hivel=127
key=C3
lovel=1
offset=1372
sample=3Trombones_staccatissimo_MF_C3_RR5.opus
</region>

<region>
hivel=127
key=C#4
lovel=1
offset=369
sample=3Trombones_staccatissimo_MF_C#4_RR5.opus
</region>

<region>
hivel=127
key=C#3
lovel=1
offset=1837
sample=3Trombones_staccatissimo_MF_C#3_RR5.opus
</region>

<region>
hivel=127
key=B4
lovel=1
offset=568
sample=3Trombones_staccatissimo_MF_B4_RR5.opus
</region>

<region>
hivel=127
key=B3
lovel=1
offset=453
sample=3Trombones_staccatissimo_MF_B3_RR5.opus
</region>

<region>
hivel=127
key=B2
lovel=1
offset=1850
sample=3Trombones_staccatissimo_MF_B2_RR5.opus
</region>

<region>
hivel=127
key=A4
lovel=1
sample=3Trombones_staccatissimo_MF_A4_RR5.opus
</region>

<region>
hivel=127
key=A3
lovel=1
offset=1232
sample=3Trombones_staccatissimo_MF_A3_RR5.opus
</region>

<region>
hivel=127
key=A2
lovel=1
offset=1489
sample=3Trombones_staccatissimo_MF_A2_RR5.opus
</region>

<region>
hivel=127
key=A#4
lovel=1
offset=1248
sample=3Trombones_staccatissimo_MF_A#4_RR5.opus
</region>

<region>
hivel=127
key=A#3
lovel=1
offset=329
sample=3Trombones_staccatissimo_MF_A#3_RR5.opus
</region>

<region>
hivel=127
key=A#2
lovel=1
offset=1567
sample=3Trombones_staccatissimo_MF_A#2_RR5.opus
</region>
</group>

<group>
group_label=RR5_0-42
seq_length=8
seq_position=5
xf_cccurve=gain
xfin_hicc1=42
xfout_hicc1=84
xfout_locc1=42

<region>
hivel=127
key=G4
lovel=1
offset=1222
sample=3Trombones_staccatissimo_PP_G4_RR5.opus
</region>

<region>
hivel=127
key=G3
lovel=1
offset=1582
sample=3Trombones_staccatissimo_PP_G3_RR5.opus
</region>

<region>
hivel=127
key=G2
lovel=1
offset=1495
sample=3Trombones_staccatissimo_PP_G2_RR5.opus
</region>

<region>
hivel=127
key=G#4
lovel=1
offset=1286
sample=3Trombones_staccatissimo_PP_G#4_RR5.opus
</region>

<region>
hivel=127
key=G#3
lovel=1
offset=667
sample=3Trombones_staccatissimo_PP_G#3_RR5.opus
</region>

<region>
hivel=127
key=G#2
lovel=1
offset=1511
sample=3Trombones_staccatissimo_PP_G#2_RR5.opus
</region>

<region>
hivel=127
key=F4
lovel=1
offset=570
sample=3Trombones_staccatissimo_PP_F4_RR5.opus
</region>

<region>
hivel=127
key=F3
lovel=1
offset=1043
sample=3Trombones_staccatissimo_PP_F3_RR5.opus
</region>

<region>
hivel=127
key=F2
lovel=1
offset=2750
sample=3Trombones_staccatissimo_PP_F2_RR5.opus
</region>

<region>
hivel=127
key=F#4
lovel=1
offset=1282
sample=3Trombones_staccatissimo_PP_F#4_RR5.opus
</region>

<region>
hivel=127
key=F#3
lovel=1
offset=1131
sample=3Trombones_staccatissimo_PP_F#3_RR5.opus
</region>

<region>
hivel=127
key=F#2
lovel=1
offset=526
sample=3Trombones_staccatissimo_PP_F#2_RR5.opus
</region>

<region>
hivel=127
key=E4
lovel=1
offset=678
sample=3Trombones_staccatissimo_PP_E4_RR5.opus
</region>

<region>
hivel=127
key=E3
lovel=1
offset=617
sample=3Trombones_staccatissimo_PP_E3_RR5.opus
</region>

<region>
hivel=127
key=E2
lovel=1
offset=1565
sample=3Trombones_staccatissimo_PP_E2_RR5.opus
</region>

<region>
hivel=127
key=D4
lovel=1
offset=1878
sample=3Trombones_staccatissimo_PP_D4_RR5.opus
</region>

<region>
hivel=127
key=D3
lovel=1
sample=3Trombones_staccatissimo_PP_D3_RR5.opus
</region>

<region>
hivel=127
key=D#4
lovel=1
offset=131
sample=3Trombones_staccatissimo_PP_D#4_RR5.opus
</region>

<region>
hivel=127
key=D#3
lovel=1
offset=741
sample=3Trombones_staccatissimo_PP_D#3_RR5.opus
</region>

<region>
hivel=127
key=C5
lovel=1
offset=683
sample=3Trombones_staccatissimo_PP_C5_RR5.opus
</region>

<region>
hivel=127
key=C4
lovel=1
offset=652
sample=3Trombones_staccatissimo_PP_C4_RR5.opus
</region>

<region>
hivel=127
key=C3
lovel=1
offset=995
sample=3Trombones_staccatissimo_PP_C3_RR5.opus
</region>

<region>
hivel=127
key=C#4
lovel=1
offset=1216
sample=3Trombones_staccatissimo_PP_C#4_RR5.opus
</region>

<region>
hivel=127
key=C#3
lovel=1
offset=1104
sample=3Trombones_staccatissimo_PP_C#3_RR5.opus
</region>

<region>
hivel=127
key=B4
lovel=1
offset=387
sample=3Trombones_staccatissimo_PP_B4_RR5.opus
</region>

<region>
hivel=127
key=B3
lovel=1
offset=2227
sample=3Trombones_staccatissimo_PP_B3_RR5.opus
</region>

<region>
hivel=127
key=B2
lovel=1
offset=1040
sample=3Trombones_staccatissimo_PP_B2_RR5.opus
</region>

<region>
hivel=127
key=A4
lovel=1
offset=1043
sample=3Trombones_staccatissimo_PP_A4_RR5.opus
</region>

<region>
hivel=127
key=A3
lovel=1
offset=1268
sample=3Trombones_staccatissimo_PP_A3_RR5.opus
</region>

<region>
hivel=127
key=A2
lovel=1
offset=820
sample=3Trombones_staccatissimo_PP_A2_RR5.opus
</region>

<region>
hivel=127
key=A#4
lovel=1
offset=713
sample=3Trombones_staccatissimo_PP_A#4_RR5.opus
</region>

<region>
hivel=127
key=A#3
lovel=1
offset=345
sample=3Trombones_staccatissimo_PP_A#3_RR5.opus
</region>

<region>
hivel=127
key=A#2
lovel=1
offset=2429
sample=3Trombones_staccatissimo_PP_A#2_RR5.opus
</region>
</group>

<group>
group_label=RR6_85-127
seq_length=8
seq_position=6
xf_cccurve=gain
xfin_hicc1=127
xfin_locc1=85
xfout_hicc1=127
xfout_locc1=127

<region>
hivel=127
key=G4
lovel=1
offset=252
sample=3Trombones_staccatissimo_FF_G4_RR6.opus
</region>

<region>
hivel=127
key=G3
lovel=1
offset=989
sample=3Trombones_staccatissimo_FF_G3_RR6.opus
</region>

<region>
hivel=127
key=G2
lovel=1
offset=1895
sample=3Trombones_staccatissimo_FF_G2_RR6.opus
</region>

<region>
hivel=127
key=G#4
lovel=1
offset=451
sample=3Trombones_staccatissimo_FF_G#4_RR6.opus
</region>

<region>
hivel=127
key=G#3
lovel=1
offset=678
sample=3Trombones_staccatissimo_FF_G#3_RR6.opus
</region>

<region>
hivel=127
key=G#2
lovel=1
offset=1149
sample=3Trombones_staccatissimo_FF_G#2_RR6.opus
</region>

<region>
hivel=127
key=F4
lovel=1
offset=124
sample=3Trombones_staccatissimo_FF_F4_RR6.opus
</region>

<region>
hivel=127
key=F3
lovel=1
offset=373
sample=3Trombones_staccatissimo_FF_F3_RR6.opus
</region>

<region>
hivel=127
key=F2
lovel=1
offset=658
sample=3Trombones_staccatissimo_FF_F2_RR6.opus
</region>

<region>
hivel=127
key=F#4
lovel=1
offset=179
sample=3Trombones_staccatissimo_FF_F#4_RR6.opus
</region>

<region>
hivel=127
key=F#3
lovel=1
offset=307
sample=3Trombones_staccatissimo_FF_F#3_RR6.opus
</region>

<region>
hivel=127
key=F#2
lovel=1
offset=908
sample=3Trombones_staccatissimo_FF_F#2_RR6.opus
</region>

<region>
hivel=127
key=E4
lovel=1
offset=134
sample=3Trombones_staccatissimo_FF_E4_RR6.opus
</region>

<region>
hivel=127
key=E3
lovel=1
offset=161
sample=3Trombones_staccatissimo_FF_E3_RR6.opus
</region>

<region>
hivel=127
key=E2
lovel=1
offset=1263
sample=3Trombones_staccatissimo_FF_E2_RR6.opus
</region>

<region>
hivel=127
key=D4
lovel=1
offset=184
sample=3Trombones_staccatissimo_FF_D4_RR6.opus
</region>

<region>
hivel=127
key=D3
lovel=1
offset=829
sample=3Trombones_staccatissimo_FF_D3_RR6.opus
</region>

<region>
hivel=127
key=D#4
lovel=1
offset=348
sample=3Trombones_staccatissimo_FF_D#4_RR6.opus
</region>

<region>
hivel=127
key=D#3
lovel=1
offset=794
sample=3Trombones_staccatissimo_FF_D#3_RR6.opus
</region>

<region>
hivel=127
key=C5
lovel=1
offset=1153
sample=3Trombones_staccatissimo_FF_C5_RR6.opus
</region>

<region>
hivel=127
key=C4
lovel=1
offset=266
sample=3Trombones_staccatissimo_FF_C4_RR6.opus
</region>

<region>
hivel=127
key=C3
lovel=1
offset=1254
sample=3Trombones_staccatissimo_FF_C3_RR6.opus
</region>

<region>
hivel=127
key=C#4
lovel=1
offset=352
sample=3Trombones_staccatissimo_FF_C#4_RR6.opus
</region>

<region>
hivel=127
key=C#3
lovel=1
offset=1274
sample=3Trombones_staccatissimo_FF_C#3_RR6.opus
</region>

<region>
hivel=127
key=B4
lovel=1
offset=832
sample=3Trombones_staccatissimo_FF_B4_RR6.opus
</region>

<region>
hivel=127
key=B3
lovel=1
offset=219
sample=3Trombones_staccatissimo_FF_B3_RR6.opus
</region>

<region>
hivel=127
key=B2
lovel=1
offset=703
sample=3Trombones_staccatissimo_FF_B2_RR6.opus
</region>

<region>
hivel=127
key=A4
lovel=1
offset=368
sample=3Trombones_staccatissimo_FF_A4_RR6.opus
</region>

<region>
hivel=127
key=A3
lovel=1
offset=963
sample=3Trombones_staccatissimo_FF_A3_RR6.opus
</region>

<region>
hivel=127
key=A2
lovel=1
offset=888
sample=3Trombones_staccatissimo_FF_A2_RR6.opus
</region>

<region>
hivel=127
key=A#4
lovel=1
offset=1091
sample=3Trombones_staccatissimo_FF_A#4_RR6.opus
</region>

<region>
hivel=127
key=A#3
lovel=1
offset=524
sample=3Trombones_staccatissimo_FF_A#3_RR6.opus
</region>

<region>
hivel=127
key=A#2
lovel=1
offset=618
sample=3Trombones_staccatissimo_FF_A#2_RR6.opus
</region>
</group>

<group>
group_label=RR6_43-84
seq_length=8
seq_position=6
xf_cccurve=gain
xfin_hicc1=84
xfin_locc1=43
xfout_hicc1=125
xfout_locc1=84

<region>
hivel=127
key=G4
lovel=1
offset=367
sample=3Trombones_staccatissimo_MF_G4_RR6.opus
</region>

<region>
hivel=127
key=G3
lovel=1
offset=815
sample=3Trombones_staccatissimo_MF_G3_RR6.opus
</region>

<region>
hivel=127
key=G2
lovel=1
offset=1096
sample=3Trombones_staccatissimo_MF_G2_RR6.opus
</region>

<region>
hivel=127
key=G#4
lovel=1
offset=765
sample=3Trombones_staccatissimo_MF_G#4_RR6.opus
</region>

<region>
hivel=127
key=G#3
lovel=1
offset=464
sample=3Trombones_staccatissimo_MF_G#3_RR6.opus
</region>

<region>
hivel=127
key=G#2
lovel=1
offset=1277
sample=3Trombones_staccatissimo_MF_G#2_RR6.opus
</region>

<region>
hivel=127
key=F4
lovel=1
offset=1133
sample=3Trombones_staccatissimo_MF_F4_RR6.opus
</region>

<region>
hivel=127
key=F3
lovel=1
offset=398
sample=3Trombones_staccatissimo_MF_F3_RR6.opus
</region>

<region>
hivel=127
key=F2
lovel=1
offset=681
sample=3Trombones_staccatissimo_MF_F2_RR6.opus
</region>

<region>
hivel=127
key=F#4
lovel=1
offset=94
sample=3Trombones_staccatissimo_MF_F#4_RR6.opus
</region>

<region>
hivel=127
key=F#3
lovel=1
offset=2021
sample=3Trombones_staccatissimo_MF_F#3_RR6.opus
</region>

<region>
hivel=127
key=F#2
lovel=1
offset=1586
sample=3Trombones_staccatissimo_MF_F#2_RR6.opus
</region>

<region>
hivel=127
key=E4
lovel=1
offset=703
sample=3Trombones_staccatissimo_MF_E4_RR6.opus
</region>

<region>
hivel=127
key=E3
lovel=1
offset=1215
sample=3Trombones_staccatissimo_MF_E3_RR6.opus
</region>

<region>
hivel=127
key=E2
lovel=1
offset=1252
sample=3Trombones_staccatissimo_MF_E2_RR6.opus
</region>

<region>
hivel=127
key=D4
lovel=1
offset=246
sample=3Trombones_staccatissimo_MF_D4_RR6.opus
</region>

<region>
hivel=127
key=D3
lovel=1
offset=304
sample=3Trombones_staccatissimo_MF_D3_RR6.opus
</region>

<region>
hivel=127
key=D#4
lovel=1
sample=3Trombones_staccatissimo_MF_D#4_RR6.opus
</region>

<region>
hivel=127
key=D#3
lovel=1
offset=1072
sample=3Trombones_staccatissimo_MF_D#3_RR6.opus
</region>

<region>
hivel=127
key=C5
lovel=1
offset=642
sample=3Trombones_staccatissimo_MF_C5_RR6.opus
</region>

<region>
hivel=127
key=C4
lovel=1
offset=641
sample=3Trombones_staccatissimo_MF_C4_RR6.opus
</region>

<region>
hivel=127
key=C3
lovel=1
offset=1377
sample=3Trombones_staccatissimo_MF_C3_RR6.opus
</region>

<region>
hivel=127
key=C#4
lovel=1
offset=1237
sample=3Trombones_staccatissimo_MF_C#4_RR6.opus
</region>

<region>
hivel=127
key=C#3
lovel=1
offset=902
sample=3Trombones_staccatissimo_MF_C#3_RR6.opus
</region>

<region>
hivel=127
key=B4
lovel=1
offset=403
sample=3Trombones_staccatissimo_MF_B4_RR6.opus
</region>

<region>
hivel=127
key=B3
lovel=1
offset=659
sample=3Trombones_staccatissimo_MF_B3_RR6.opus
</region>

<region>
hivel=127
key=B2
lovel=1
offset=1708
sample=3Trombones_staccatissimo_MF_B2_RR6.opus
</region>

<region>
hivel=127
key=A4
lovel=1
offset=616
sample=3Trombones_staccatissimo_MF_A4_RR6.opus
</region>

<region>
hivel=127
key=A3
lovel=1
offset=872
sample=3Trombones_staccatissimo_MF_A3_RR6.opus
</region>

<region>
hivel=127
key=A2
lovel=1
offset=796
sample=3Trombones_staccatissimo_MF_A2_RR6.opus
</region>

<region>
hivel=127
key=A#4
lovel=1
offset=1698
sample=3Trombones_staccatissimo_MF_A#4_RR6.opus
</region>

<region>
hivel=127
key=A#3
lovel=1
offset=1100
sample=3Trombones_staccatissimo_MF_A#3_RR6.opus
</region>

<region>
hivel=127
key=A#2
lovel=1
offset=1159
sample=3Trombones_staccatissimo_MF_A#2_RR6.opus
</region>
</group>

<group>
group_label=RR6_0-42
seq_length=8
seq_position=6
xf_cccurve=gain
xfin_hicc1=42
xfout_hicc1=84
xfout_locc1=42

<region>
hivel=127
key=G4
lovel=1
offset=835
sample=3Trombones_staccatissimo_PP_G4_RR6.opus
</region>

<region>
hivel=127
key=G3
lovel=1
offset=1486
sample=3Trombones_staccatissimo_PP_G3_RR6.opus
</region>

<region>
hivel=127
key=G2
lovel=1
offset=1455
sample=3Trombones_staccatissimo_PP_G2_RR6.opus
</region>

<region>
hivel=127
key=G#4
lovel=1
offset=652
sample=3Trombones_staccatissimo_PP_G#4_RR6.opus
</region>

<region>
hivel=127
key=G#3
lovel=1
offset=1160
sample=3Trombones_staccatissimo_PP_G#3_RR6.opus
</region>

<region>
hivel=127
key=G#2
lovel=1
offset=1855
sample=3Trombones_staccatissimo_PP_G#2_RR6.opus
</region>

<region>
hivel=127
key=F4
lovel=1
offset=1725
sample=3Trombones_staccatissimo_PP_F4_RR6.opus
</region>

<region>
hivel=127
key=F3
lovel=1
offset=1233
sample=3Trombones_staccatissimo_PP_F3_RR6.opus
</region>

<region>
hivel=127
key=F2
lovel=1
offset=1792
sample=3Trombones_staccatissimo_PP_F2_RR6.opus
</region>

<region>
hivel=127
key=F#4
lovel=1
offset=1622
sample=3Trombones_staccatissimo_PP_F#4_RR6.opus
</region>

<region>
hivel=127
key=F#3
lovel=1
offset=1856
sample=3Trombones_staccatissimo_PP_F#3_RR6.opus
</region>

<region>
hivel=127
key=F#2
lovel=1
offset=615
sample=3Trombones_staccatissimo_PP_F#2_RR6.opus
</region>

<region>
hivel=127
key=E4
lovel=1
offset=386
sample=3Trombones_staccatissimo_PP_E4_RR6.opus
</region>

<region>
hivel=127
key=E3
lovel=1
offset=848
sample=3Trombones_staccatissimo_PP_E3_RR6.opus
</region>

<region>
hivel=127
key=E2
lovel=1
offset=1777
sample=3Trombones_staccatissimo_PP_E2_RR6.opus
</region>

<region>
hivel=127
key=D4
lovel=1
offset=1679
sample=3Trombones_staccatissimo_PP_D4_RR6.opus
</region>

<region>
hivel=127
key=D3
lovel=1
offset=1036
sample=3Trombones_staccatissimo_PP_D3_RR6.opus
</region>

<region>
hivel=127
key=D#4
lovel=1
offset=828
sample=3Trombones_staccatissimo_PP_D#4_RR6.opus
</region>

<region>
hivel=127
key=D#3
lovel=1
offset=1412
sample=3Trombones_staccatissimo_PP_D#3_RR6.opus
</region>

<region>
hivel=127
key=C5
lovel=1
offset=1850
sample=3Trombones_staccatissimo_PP_C5_RR6.opus
</region>

<region>
hivel=127
key=C4
lovel=1
offset=427
sample=3Trombones_staccatissimo_PP_C4_RR6.opus
</region>

<region>
hivel=127
key=C3
lovel=1
offset=992
sample=3Trombones_staccatissimo_PP_C3_RR6.opus
</region>

<region>
hivel=127
key=C#4
lovel=1
offset=1083
sample=3Trombones_staccatissimo_PP_C#4_RR6.opus
</region>

<region>
hivel=127
key=C#3
lovel=1
offset=972
sample=3Trombones_staccatissimo_PP_C#3_RR6.opus
</region>

<region>
hivel=127
key=B4
lovel=1
offset=88
sample=3Trombones_staccatissimo_PP_B4_RR6.opus
</region>

<region>
hivel=127
key=B3
lovel=1
offset=493
sample=3Trombones_staccatissimo_PP_B3_RR6.opus
</region>

<region>
hivel=127
key=B2
lovel=1
offset=1855
sample=3Trombones_staccatissimo_PP_B2_RR6.opus
</region>

<region>
hivel=127
key=A4
lovel=1
offset=207
sample=3Trombones_staccatissimo_PP_A4_RR6.opus
</region>

<region>
hivel=127
key=A3
lovel=1
offset=399
sample=3Trombones_staccatissimo_PP_A3_RR6.opus
</region>

<region>
hivel=127
key=A2
lovel=1
offset=537
sample=3Trombones_staccatissimo_PP_A2_RR6.opus
</region>

<region>
hivel=127
key=A#4
lovel=1
offset=2093
sample=3Trombones_staccatissimo_PP_A#4_RR6.opus
</region>

<region>
hivel=127
key=A#3
lovel=1
offset=660
sample=3Trombones_staccatissimo_PP_A#3_RR6.opus
</region>

<region>
hivel=127
key=A#2
lovel=1
offset=1622
sample=3Trombones_staccatissimo_PP_A#2_RR6.opus
</region>
</group>

<group>
group_label=RR7_85-127
seq_length=8
seq_position=7
xf_cccurve=gain
xfin_hicc1=127
xfin_locc1=85
xfout_hicc1=127
xfout_locc1=127

<region>
hivel=127
key=G4
lovel=1
offset=113
sample=3Trombones_staccatissimo_FF_G4_RR7.opus
</region>

<region>
hivel=127
key=G3
lovel=1
offset=447
sample=3Trombones_staccatissimo_FF_G3_RR7.opus
</region>

<region>
hivel=127
key=G2
lovel=1
offset=546
sample=3Trombones_staccatissimo_FF_G2_RR7.opus
</region>

<region>
hivel=127
key=G#4
lovel=1
offset=505
sample=3Trombones_staccatissimo_FF_G#4_RR7.opus
</region>

<region>
hivel=127
key=G#3
lovel=1
offset=238
sample=3Trombones_staccatissimo_FF_G#3_RR7.opus
</region>

<region>
hivel=127
key=G#2
lovel=1
offset=750
sample=3Trombones_staccatissimo_FF_G#2_RR7.opus
</region>

<region>
hivel=127
key=F4
lovel=1
offset=743
sample=3Trombones_staccatissimo_FF_F4_RR7.opus
</region>

<region>
hivel=127
key=F3
lovel=1
offset=61
sample=3Trombones_staccatissimo_FF_F3_RR7.opus
</region>

<region>
hivel=127
key=F2
lovel=1
offset=1227
sample=3Trombones_staccatissimo_FF_F2_RR7.opus
</region>

<region>
hivel=127
key=F#4
lovel=1
offset=453
sample=3Trombones_staccatissimo_FF_F#4_RR7.opus
</region>

<region>
hivel=127
key=F#3
lovel=1
offset=545
sample=3Trombones_staccatissimo_FF_F#3_RR7.opus
</region>

<region>
hivel=127
key=F#2
lovel=1
offset=1020
sample=3Trombones_staccatissimo_FF_F#2_RR7.opus
</region>

<region>
hivel=127
key=E4
lovel=1
offset=1062
sample=3Trombones_staccatissimo_FF_E4_RR7.opus
</region>

<region>
hivel=127
key=E3
lovel=1
offset=589
sample=3Trombones_staccatissimo_FF_E3_RR7.opus
</region>

<region>
hivel=127
key=E2
lovel=1
offset=1287
sample=3Trombones_staccatissimo_FF_E2_RR7.opus
</region>

<region>
hivel=127
key=D4
lovel=1
offset=199
sample=3Trombones_staccatissimo_FF_D4_RR7.opus
</region>

<region>
hivel=127
key=D3
lovel=1
offset=910
sample=3Trombones_staccatissimo_FF_D3_RR7.opus
</region>

<region>
hivel=127
key=D#4
lovel=1
offset=438
sample=3Trombones_staccatissimo_FF_D#4_RR7.opus
</region>

<region>
hivel=127
key=D#3
lovel=1
offset=213
sample=3Trombones_staccatissimo_FF_D#3_RR7.opus
</region>

<region>
hivel=127
key=C5
lovel=1
offset=247
sample=3Trombones_staccatissimo_FF_C5_RR7.opus
</region>

<region>
hivel=127
key=C4
lovel=1
offset=439
sample=3Trombones_staccatissimo_FF_C4_RR7.opus
</region>

<region>
hivel=127
key=C3
lovel=1
offset=1112
sample=3Trombones_staccatissimo_FF_C3_RR7.opus
</region>

<region>
hivel=127
key=C#4
lovel=1
offset=386
sample=3Trombones_staccatissimo_FF_C#4_RR7.opus
</region>

<region>
hivel=127
key=C#3
lovel=1
offset=304
sample=3Trombones_staccatissimo_FF_C#3_RR7.opus
</region>

<region>
hivel=127
key=B4
lovel=1
offset=286
sample=3Trombones_staccatissimo_FF_B4_RR7.opus
</region>

<region>
hivel=127
key=B3
lovel=1
offset=423
sample=3Trombones_staccatissimo_FF_B3_RR7.opus
</region>

<region>
hivel=127
key=B2
lovel=1
offset=1071
sample=3Trombones_staccatissimo_FF_B2_RR7.opus
</region>

<region>
hivel=127
key=A4
lovel=1
offset=1153
sample=3Trombones_staccatissimo_FF_A4_RR7.opus
</region>

<region>
hivel=127
key=A3
lovel=1
offset=1527
sample=3Trombones_staccatissimo_FF_A3_RR7.opus
</region>

<region>
hivel=127
key=A2
lovel=1
offset=901
sample=3Trombones_staccatissimo_FF_A2_RR7.opus
</region>

<region>
hivel=127
key=A#4
lovel=1
offset=185
sample=3Trombones_staccatissimo_FF_A#4_RR7.opus
</region>

<region>
hivel=127
key=A#3
lovel=1
offset=356
sample=3Trombones_staccatissimo_FF_A#3_RR7.opus
</region>

<region>
hivel=127
key=A#2
lovel=1
offset=404
sample=3Trombones_staccatissimo_FF_A#2_RR7.opus
</region>
</group>

<group>
group_label=RR7_43-84
seq_length=8
seq_position=7
xf_cccurve=gain
xfin_hicc1=84
xfin_locc1=43
xfout_hicc1=125
xfout_locc1=84

<region>
hivel=127
key=G4
lovel=1
offset=147
sample=3Trombones_staccatissimo_MF_G4_RR7.opus
</region>

<region>
hivel=127
key=G3
lovel=1
offset=788
sample=3Trombones_staccatissimo_MF_G3_RR7.opus
</region>

<region>
hivel=127
key=G2
lovel=1
offset=1450
sample=3Trombones_staccatissimo_MF_G2_RR7.opus
</region>

<region>
hivel=127
key=G#4
lovel=1
offset=1255
sample=3Trombones_staccatissimo_MF_G#4_RR7.opus
</region>

<region>
hivel=127
key=G#3
lovel=1
offset=399
sample=3Trombones_staccatissimo_MF_G#3_RR7.opus
</region>

<region>
hivel=127
key=G#2
lovel=1
offset=1252
sample=3Trombones_staccatissimo_MF_G#2_RR7.opus
</region>

<region>
hivel=127
key=F4
lovel=1
sample=3Trombones_staccatissimo_MF_F4_RR7.opus
</region>

<region>
hivel=127
key=F3
lovel=1
offset=1478
sample=3Trombones_staccatissimo_MF_F3_RR7.opus
</region>

<region>
hivel=127
key=F2
lovel=1
offset=1495
sample=3Trombones_staccatissimo_MF_F2_RR7.opus
</region>

<region>
hivel=127
key=F#4
lovel=1
offset=1816
sample=3Trombones_staccatissimo_MF_F#4_RR7.opus
</region>

<region>
hivel=127
key=F#3
lovel=1
offset=402
sample=3Trombones_staccatissimo_MF_F#3_RR7.opus
</region>

<region>
hivel=127
key=F#2
lovel=1
offset=2159
sample=3Trombones_staccatissimo_MF_F#2_RR7.opus
</region>

<region>
hivel=127
key=E4
lovel=1
offset=483
sample=3Trombones_staccatissimo_MF_E4_RR7.opus
</region>

<region>
hivel=127
key=E3
lovel=1
offset=1034
sample=3Trombones_staccatissimo_MF_E3_RR7.opus
</region>

<region>
hivel=127
key=E2
lovel=1
offset=1323
sample=3Trombones_staccatissimo_MF_E2_RR7.opus
</region>

<region>
hivel=127
key=D4
lovel=1
offset=310
sample=3Trombones_staccatissimo_MF_D4_RR7.opus
</region>

<region>
hivel=127
key=D3
lovel=1
offset=1718
sample=3Trombones_staccatissimo_MF_D3_RR7.opus
</region>

<region>
hivel=127
key=D#4
lovel=1
offset=120
sample=3Trombones_staccatissimo_MF_D#4_RR7.opus
</region>

<region>
hivel=127
key=D#3
lovel=1
offset=2284
sample=3Trombones_staccatissimo_MF_D#3_RR7.opus
</region>

<region>
hivel=127
key=C5
lovel=1
offset=2274
sample=3Trombones_staccatissimo_MF_C5_RR7.opus
</region>

<region>
hivel=127
key=C4
lovel=1
offset=264
sample=3Trombones_staccatissimo_MF_C4_RR7.opus
</region>

<region>
hivel=127
key=C3
lovel=1
offset=1425
sample=3Trombones_staccatissimo_MF_C3_RR7.opus
</region>

<region>
hivel=127
key=C#4
lovel=1
offset=453
sample=3Trombones_staccatissimo_MF_C#4_RR7.opus
</region>

<region>
hivel=127
key=C#3
lovel=1
offset=1561
sample=3Trombones_staccatissimo_MF_C#3_RR7.opus
</region>

<region>
hivel=127
key=B4
lovel=1
offset=822
sample=3Trombones_staccatissimo_MF_B4_RR7.opus
</region>

<region>
hivel=127
key=B3
lovel=1
offset=1644
sample=3Trombones_staccatissimo_MF_B3_RR7.opus
</region>

<region>
hivel=127
key=B2
lovel=1
offset=975
sample=3Trombones_staccatissimo_MF_B2_RR7.opus
</region>

<region>
hivel=127
key=A4
lovel=1
offset=1943
sample=3Trombones_staccatissimo_MF_A4_RR7.opus
</region>

<region>
hivel=127
key=A3
lovel=1
offset=1653
sample=3Trombones_staccatissimo_MF_A3_RR7.opus
</region>

<region>
hivel=127
key=A2
lovel=1
offset=1699
sample=3Trombones_staccatissimo_MF_A2_RR7.opus
</region>

<region>
hivel=127
key=A#4
lovel=1
offset=1072
sample=3Trombones_staccatissimo_MF_A#4_RR7.opus
</region>

<region>
hivel=127
key=A#3
lovel=1
offset=518
sample=3Trombones_staccatissimo_MF_A#3_RR7.opus
</region>

<region>
hivel=127
key=A#2
lovel=1
offset=957
sample=3Trombones_staccatissimo_MF_A#2_RR7.opus
</region>
</group>

<group>
group_label=RR7_0-42
seq_length=8
seq_position=7
xf_cccurve=gain
xfin_hicc1=42
xfout_hicc1=84
xfout_locc1=42

<region>
hivel=127
key=G4
lovel=1
offset=1243
sample=3Trombones_staccatissimo_PP_G4_RR7.opus
</region>

<region>
hivel=127
key=G3
lovel=1
offset=931
sample=3Trombones_staccatissimo_PP_G3_RR7.opus
</region>

<region>
hivel=127
key=G2
lovel=1
offset=2011
sample=3Trombones_staccatissimo_PP_G2_RR7.opus
</region>

<region>
hivel=127
key=G#4
lovel=1
offset=474
sample=3Trombones_staccatissimo_PP_G#4_RR7.opus
</region>

<region>
hivel=127
key=G#3
lovel=1
offset=1100
sample=3Trombones_staccatissimo_PP_G#3_RR7.opus
</region>

<region>
hivel=127
key=G#2
lovel=1
offset=1277
sample=3Trombones_staccatissimo_PP_G#2_RR7.opus
</region>

<region>
hivel=127
key=F4
lovel=1
offset=591
sample=3Trombones_staccatissimo_PP_F4_RR7.opus
</region>

<region>
hivel=127
key=F3
lovel=1
offset=1671
sample=3Trombones_staccatissimo_PP_F3_RR7.opus
</region>

<region>
hivel=127
key=F2
lovel=1
offset=1111
sample=3Trombones_staccatissimo_PP_F2_RR7.opus
</region>

<region>
hivel=127
key=F#4
lovel=1
offset=1126
sample=3Trombones_staccatissimo_PP_F#4_RR7.opus
</region>

<region>
hivel=127
key=F#3
lovel=1
offset=2896
sample=3Trombones_staccatissimo_PP_F#3_RR7.opus
</region>

<region>
hivel=127
key=F#2
lovel=1
offset=1565
sample=3Trombones_staccatissimo_PP_F#2_RR7.opus
</region>

<region>
hivel=127
key=E4
lovel=1
offset=464
sample=3Trombones_staccatissimo_PP_E4_RR7.opus
</region>

<region>
hivel=127
key=E3
lovel=1
offset=712
sample=3Trombones_staccatissimo_PP_E3_RR7.opus
</region>

<region>
hivel=127
key=E2
lovel=1
offset=1356
sample=3Trombones_staccatissimo_PP_E2_RR7.opus
</region>

<region>
hivel=127
key=D4
lovel=1
offset=1794
sample=3Trombones_staccatissimo_PP_D4_RR7.opus
</region>

<region>
hivel=127
key=D3
lovel=1
offset=793
sample=3Trombones_staccatissimo_PP_D3_RR7.opus
</region>

<region>
hivel=127
key=D#4
lovel=1
offset=924
sample=3Trombones_staccatissimo_PP_D#4_RR7.opus
</region>

<region>
hivel=127
key=D#3
lovel=1
offset=727
sample=3Trombones_staccatissimo_PP_D#3_RR7.opus
</region>

<region>
hivel=127
key=C5
lovel=1
offset=395
sample=3Trombones_staccatissimo_PP_C5_RR7.opus
</region>

<region>
hivel=127
key=C4
lovel=1
offset=853
sample=3Trombones_staccatissimo_PP_C4_RR7.opus
</region>

<region>
hivel=127
key=C3
lovel=1
offset=865
sample=3Trombones_staccatissimo_PP_C3_RR7.opus
</region>

<region>
hivel=127
key=C#4
lovel=1
offset=1180
sample=3Trombones_staccatissimo_PP_C#4_RR7.opus
</region>

<region>
hivel=127
key=C#3
lovel=1
offset=566
sample=3Trombones_staccatissimo_PP_C#3_RR7.opus
</region>

<region>
hivel=127
key=B4
lovel=1
offset=579
sample=3Trombones_staccatissimo_PP_B4_RR7.opus
</region>

<region>
hivel=127
key=B3
lovel=1
offset=470
sample=3Trombones_staccatissimo_PP_B3_RR7.opus
</region>

<region>
hivel=127
key=B2
lovel=1
offset=1864
sample=3Trombones_staccatissimo_PP_B2_RR7.opus
</region>

<region>
hivel=127
key=A4
lovel=1
offset=612
sample=3Trombones_staccatissimo_PP_A4_RR7.opus
</region>

<region>
hivel=127
key=A3
lovel=1
offset=1452
sample=3Trombones_staccatissimo_PP_A3_RR7.opus
</region>

<region>
hivel=127
key=A2
lovel=1
sample=3Trombones_staccatissimo_PP_A2_RR7.opus
</region>

<region>
hivel=127
key=A#4
lovel=1
offset=1687
sample=3Trombones_staccatissimo_PP_A#4_RR7.opus
</region>

<region>
hivel=127
key=A#3
lovel=1
offset=507
sample=3Trombones_staccatissimo_PP_A#3_RR7.opus
</region>

<region>
hivel=127
key=A#2
lovel=1
offset=2035
sample=3Trombones_staccatissimo_PP_A#2_RR7.opus
</region>
</group>

<group>
group_label=RR8_85-127
seq_length=8
seq_position=8
xf_cccurve=gain
xfin_hicc1=127
xfin_locc1=85
xfout_hicc1=127
xfout_locc1=127

<region>
hivel=127
key=g4
lovel=1
offset=1188
sample=3Trombones_staccatissimo_FF_G4_RR8.opus
</region>

<region>
hivel=127
key=G3
lovel=1
offset=479
sample=3Trombones_staccatissimo_FF_G3_RR8.opus
</region>

<region>
hivel=127
key=G2
lovel=1
offset=513
sample=3Trombones_staccatissimo_FF_G2_RR8.opus
</region>

<region>
hivel=127
key=G#4
lovel=1
offset=340
sample=3Trombones_staccatissimo_FF_G#4_RR8.opus
</region>

<region>
hivel=127
key=g#3
lovel=1
offset=717
sample=3Trombones_staccatissimo_FF_G#3_RR8.opus
</region>

<region>
hivel=127
key=G#2
lovel=1
offset=921
sample=3Trombones_staccatissimo_FF_G#2_RR8.opus
</region>

<region>
hivel=127
key=F4
lovel=1
offset=78
sample=3Trombones_staccatissimo_FF_F4_RR8.opus
</region>

<region>
hivel=127
key=F3
lovel=1
offset=127
sample=3Trombones_staccatissimo_FF_F3_RR8.opus
</region>

<region>
hivel=127
key=F2
lovel=1
offset=1235
sample=3Trombones_staccatissimo_FF_F2_RR8.opus
</region>

<region>
hivel=127
key=F#4
lovel=1
offset=371
sample=3Trombones_staccatissimo_FF_F#4_RR8.opus
</region>

<region>
hivel=127
key=F#3
lovel=1
offset=318
sample=3Trombones_staccatissimo_FF_F#3_RR8.opus
</region>

<region>
hivel=127
key=F#2
lovel=1
offset=567
sample=3Trombones_staccatissimo_FF_F#2_RR8.opus
</region>

<region>
hivel=127
key=E4
lovel=1
sample=3Trombones_staccatissimo_FF_E4_RR8.opus
</region>

<region>
hivel=127
key=E3
lovel=1
offset=1024
sample=3Trombones_staccatissimo_FF_E3_RR8.opus
</region>

<region>
hivel=127
key=E2
lovel=1
offset=745
sample=3Trombones_staccatissimo_FF_E2_RR8.opus
</region>

<region>
hivel=127
key=D4
lovel=1
offset=184
sample=3Trombones_staccatissimo_FF_D4_RR8.opus
</region>

<region>
hivel=127
key=D3
lovel=1
offset=920
sample=3Trombones_staccatissimo_FF_D3_RR8.opus
</region>

<region>
hivel=127
key=D#4
lovel=1
offset=609
sample=3Trombones_staccatissimo_FF_D#4_RR8.opus
</region>

<region>
hivel=127
key=D#3
lovel=1
offset=771
sample=3Trombones_staccatissimo_FF_D#3_RR8.opus
</region>

<region>
hivel=127
key=C5
lovel=1
offset=178
sample=3Trombones_staccatissimo_FF_C5_RR8.opus
</region>

<region>
hivel=127
key=C4
lovel=1
offset=433
sample=3Trombones_staccatissimo_FF_C4_RR8.opus
</region>

<region>
hivel=127
key=C3
lovel=1
offset=853
sample=3Trombones_staccatissimo_FF_C3_RR8.opus
</region>

<region>
hivel=127
key=C#4
lovel=1
offset=553
sample=3Trombones_staccatissimo_FF_C#4_RR8.opus
</region>

<region>
hivel=127
key=C#3
lovel=1
offset=919
sample=3Trombones_staccatissimo_FF_C#3_RR8.opus
</region>

<region>
hivel=127
key=B4
lovel=1
offset=855
sample=3Trombones_staccatissimo_FF_B4_RR8.opus
</region>

<region>
hivel=127
key=B3
lovel=1
offset=498
sample=3Trombones_staccatissimo_FF_B3_RR8.opus
</region>

<region>
hivel=127
key=B2
lovel=1
offset=1076
sample=3Trombones_staccatissimo_FF_B2_RR8.opus
</region>

<region>
hivel=127
key=A4
lovel=1
offset=1664
sample=3Trombones_staccatissimo_FF_A4_RR8.opus
</region>

<region>
hivel=127
key=A3
lovel=1
offset=897
sample=3Trombones_staccatissimo_FF_A3_RR8.opus
</region>

<region>
hivel=127
key=A2
lovel=1
offset=446
sample=3Trombones_staccatissimo_FF_A2_RR8.opus
</region>

<region>
hivel=127
key=a#4
lovel=1
offset=868
sample=3Trombones_staccatissimo_FF_A#4_RR8.opus
</region>

<region>
hivel=127
key=A#3
lovel=1
offset=623
sample=3Trombones_staccatissimo_FF_A#3_RR8.opus
</region>

<region>
hivel=127
key=A#2
lovel=1
offset=372
sample=3Trombones_staccatissimo_FF_A#2_RR8.opus
</region>
</group>

<group>
group_label=RR8_43-84
seq_length=8
seq_position=8
xf_cccurve=gain
xfin_hicc1=84
xfin_locc1=43
xfout_hicc1=125
xfout_locc1=84

<region>
hivel=127
key=G4
lovel=1
offset=1119
sample=3Trombones_staccatissimo_MF_G4_RR8.opus
</region>

<region>
hivel=127
key=G3
lovel=1
offset=1608
sample=3Trombones_staccatissimo_MF_G3_RR8.opus
</region>

<region>
hivel=127
key=G2
lovel=1
offset=920
sample=3Trombones_staccatissimo_MF_G2_RR8.opus
</region>

<region>
hivel=127
key=G#4
lovel=1
offset=345
sample=3Trombones_staccatissimo_MF_G#4_RR8.opus
</region>

<region>
hivel=127
key=G#3
lovel=1
offset=405
sample=3Trombones_staccatissimo_MF_G#3_RR8.opus
</region>

<region>
hivel=127
key=G#2
lovel=1
offset=663
sample=3Trombones_staccatissimo_MF_G#2_RR8.opus
</region>

<region>
hivel=127
key=F4
lovel=1
offset=1018
sample=3Trombones_staccatissimo_MF_F4_RR8.opus
</region>

<region>
hivel=127
key=F3
lovel=1
offset=575
sample=3Trombones_staccatissimo_MF_F3_RR8.opus
</region>

<region>
hivel=127
key=F2
lovel=1
offset=1222
sample=3Trombones_staccatissimo_MF_F2_RR8.opus
</region>

<region>
hivel=127
key=f#4
lovel=1
offset=78
sample=3Trombones_staccatissimo_MF_F#4_RR8.opus
</region>

<region>
hivel=127
key=F#3
lovel=1
offset=566
sample=3Trombones_staccatissimo_MF_F#3_RR8.opus
</region>

<region>
hivel=127
key=F#2
lovel=1
offset=1522
sample=3Trombones_staccatissimo_MF_F#2_RR8.opus
</region>

<region>
hivel=127
key=E4
lovel=1
offset=307
sample=3Trombones_staccatissimo_MF_E4_RR8.opus
</region>

<region>
hivel=127
key=E3
lovel=1
offset=1255
sample=3Trombones_staccatissimo_MF_E3_RR8.opus
</region>

<region>
hivel=127
key=E2
lovel=1
offset=1422
sample=3Trombones_staccatissimo_MF_E2_RR8.opus
</region>

<region>
hivel=127
key=D4
lovel=1
offset=1322
sample=3Trombones_staccatissimo_MF_D4_RR8.opus
</region>

<region>
hivel=127
key=D3
lovel=1
offset=1013
sample=3Trombones_staccatissimo_MF_D3_RR8.opus
</region>

<region>
hivel=127
key=D#4
lovel=1
offset=613
sample=3Trombones_staccatissimo_MF_D#4_RR8.opus
</region>

<region>
hivel=127
key=D#3
lovel=1
offset=1383
sample=3Trombones_staccatissimo_MF_D#3_RR8.opus
</region>

<region>
hivel=127
key=C5
lovel=1
offset=480
sample=3Trombones_staccatissimo_MF_C5_RR8.opus
</region>

<region>
hivel=127
key=C4
lovel=1
offset=589
sample=3Trombones_staccatissimo_MF_C4_RR8.opus
</region>

<region>
hivel=127
key=C3
lovel=1
offset=612
sample=3Trombones_staccatissimo_MF_C3_RR8.opus
</region>

<region>
hivel=127
key=C#4
lovel=1
offset=775
sample=3Trombones_staccatissimo_MF_C#4_RR8.opus
</region>

<region>
hivel=127
key=C#3
lovel=1
offset=1527
sample=3Trombones_staccatissimo_MF_C#3_RR8.opus
</region>

<region>
hivel=127
key=B4
lovel=1
offset=802
sample=3Trombones_staccatissimo_MF_B4_RR8.opus
</region>

<region>
hivel=127
key=B3
lovel=1
offset=453
sample=3Trombones_staccatissimo_MF_B3_RR8.opus
</region>

<region>
hivel=127
key=B2
lovel=1
offset=1806
sample=3Trombones_staccatissimo_MF_B2_RR8.opus
</region>

<region>
hivel=127
key=A4
lovel=1
offset=877
sample=3Trombones_staccatissimo_MF_A4_RR8.opus
</region>

<region>
hivel=127
key=A3
lovel=1
offset=1039
sample=3Trombones_staccatissimo_MF_A3_RR8.opus
</region>

<region>
hivel=127
key=A2
lovel=1
offset=1225
sample=3Trombones_staccatissimo_MF_A2_RR8.opus
</region>

<region>
hivel=127
key=A#4
lovel=1
offset=767
sample=3Trombones_staccatissimo_MF_A#4_RR8.opus
</region>

<region>
hivel=127
key=A#3
lovel=1
offset=1583
sample=3Trombones_staccatissimo_MF_A#3_RR8.opus
</region>

<region>
hivel=127
key=A#2
lovel=1
offset=1539
sample=3Trombones_staccatissimo_MF_A#2_RR8.opus
</region>
</group>

<group>
group_label=RR8_0-42
seq_length=8
seq_position=8
xf_cccurve=gain
xfin_hicc1=42
xfout_hicc1=84
xfout_locc1=42

<region>
hivel=127
key=G4
lovel=1
offset=208
sample=3Trombones_staccatissimo_PP_G4_RR8.opus
</region>

<region>
hivel=127
key=G3
lovel=1
offset=15
sample=3Trombones_staccatissimo_PP_G3_RR8.opus
</region>

<region>
hivel=127
key=G2
lovel=1
offset=1467
sample=3Trombones_staccatissimo_PP_G2_RR8.opus
</region>

<region>
hivel=127
key=G#4
lovel=1
offset=433
sample=3Trombones_staccatissimo_PP_G#4_RR8.opus
</region>

<region>
hivel=127
key=G#3
lovel=1
offset=2066
sample=3Trombones_staccatissimo_PP_G#3_RR8.opus
</region>

<region>
hivel=127
key=G#2
lovel=1
offset=641
sample=3Trombones_staccatissimo_PP_G#2_RR8.opus
</region>

<region>
hivel=127
key=F4
lovel=1
offset=842
sample=3Trombones_staccatissimo_PP_F4_RR8.opus
</region>

<region>
hivel=127
key=F3
lovel=1
offset=351
sample=3Trombones_staccatissimo_PP_F3_RR8.opus
</region>

<region>
hivel=127
key=F2
lovel=1
offset=1494
sample=3Trombones_staccatissimo_PP_F2_RR8.opus
</region>

<region>
hivel=127
key=F#4
lovel=1
offset=833
sample=3Trombones_staccatissimo_PP_F#4_RR8.opus
</region>

<region>
hivel=127
key=F#3
lovel=1
offset=1380
sample=3Trombones_staccatissimo_PP_F#3_RR8.opus
</region>

<region>
hivel=127
key=F#2
lovel=1
offset=810
sample=3Trombones_staccatissimo_PP_F#2_RR8.opus
</region>

<region>
hivel=127
key=E4
lovel=1
offset=2139
sample=3Trombones_staccatissimo_PP_E4_RR8.opus
</region>

<region>
hivel=127
key=E3
lovel=1
offset=387
sample=3Trombones_staccatissimo_PP_E3_RR8.opus
</region>

<region>
hivel=127
key=E2
lovel=1
offset=1393
sample=3Trombones_staccatissimo_PP_E2_RR8.opus
</region>

<region>
hivel=127
key=D4
lovel=1
offset=1161
sample=3Trombones_staccatissimo_PP_D4_RR8.opus
</region>

<region>
hivel=127
key=D3
lovel=1
offset=764
sample=3Trombones_staccatissimo_PP_D3_RR8.opus
</region>

<region>
hivel=127
key=D#4
lovel=1
offset=1568
sample=3Trombones_staccatissimo_PP_D#4_RR8.opus
</region>

<region>
hivel=127
key=D#3
lovel=1
offset=854
sample=3Trombones_staccatissimo_PP_D#3_RR8.opus
</region>

<region>
hivel=127
key=C5
lovel=1
offset=628
sample=3Trombones_staccatissimo_PP_C5_RR8.opus
</region>

<region>
hivel=127
key=C4
lovel=1
offset=785
sample=3Trombones_staccatissimo_PP_C4_RR8.opus
</region>

<region>
hivel=127
key=C3
lovel=1
offset=1306
sample=3Trombones_staccatissimo_PP_C3_RR8.opus
</region>

<region>
hivel=127
key=C#4
lovel=1
offset=1764
sample=3Trombones_staccatissimo_PP_C#4_RR8.opus
</region>

<region>
hivel=127
key=C#3
lovel=1
offset=1067
sample=3Trombones_staccatissimo_PP_C#3_RR8.opus
</region>

<region>
hivel=127
key=B4
lovel=1
sample=3Trombones_staccatissimo_PP_B4_RR8.opus
</region>

<region>
hivel=127
key=B3
lovel=1
offset=1300
sample=3Trombones_staccatissimo_PP_B3_RR8.opus
</region>

<region>
hivel=127
key=B2
lovel=1
offset=833
sample=3Trombones_staccatissimo_PP_B2_RR8.opus
</region>

<region>
hivel=127
key=A4
lovel=1
offset=605
sample=3Trombones_staccatissimo_PP_A4_RR8.opus
</region>

<region>
hivel=127
key=A3
lovel=1
offset=589
sample=3Trombones_staccatissimo_PP_A3_RR8.opus
</region>

<region>
hivel=127
key=A2
lovel=1
offset=1244
sample=3Trombones_staccatissimo_PP_A2_RR8.opus
</region>

<region>
hivel=127
key=A#4
lovel=1
offset=536
sample=3Trombones_staccatissimo_PP_A#4_RR8.opus
</region>

<region>
hivel=127
key=A#3
lovel=1
offset=560
sample=3Trombones_staccatissimo_PP_A#3_RR8.opus
</region>

<region>
hivel=127
key=A#2
lovel=1
offset=1086
sample=3Trombones_staccatissimo_PP_A#2_RR8.opus
</region>
</group>